<?xml version="1.0" encoding="UTF-8" standalone="no"?>
<svg
   xmlns:dc="http://purl.org/dc/elements/1.1/"
   xmlns:cc="http://creativecommons.org/ns#"
   xmlns:rdf="http://www.w3.org/1999/02/22-rdf-syntax-ns#"
   xmlns:svg="http://www.w3.org/2000/svg"
   xmlns="http://www.w3.org/2000/svg"
   xmlns:xlink="http://www.w3.org/1999/xlink"
   xmlns:sodipodi="http://sodipodi.sourceforge.net/DTD/sodipodi-0.dtd"
   xmlns:inkscape="http://www.inkscape.org/namespaces/inkscape"
   width="820"
   height="360"
   viewBox="0 0 216.95833 95.249997"
   version="1.1"
   id="svg8"
   inkscape:version="1.0.1 (3bc2e813f5, 2020-09-07)"
   sodipodi:docname="header-mr3.svg">
  <defs
     id="defs2">
    <linearGradient
       inkscape:collect="always"
       id="linearGradient947">
      <stop
         style="stop-color:#bd5b1a;stop-opacity:1;"
         offset="0"
         id="stop943" />
      <stop
         style="stop-color:#ded896;stop-opacity:0.82258064"
         offset="1"
         id="stop945" />
    </linearGradient>
    <linearGradient
       inkscape:collect="always"
       id="linearGradient902">
      <stop
         style="stop-color:#ffe57c;stop-opacity:1"
         offset="0"
         id="stop898" />
      <stop
         style="stop-color:#ffffff;stop-opacity:0.97983873"
         offset="1"
         id="stop900" />
    </linearGradient>
    <linearGradient
       inkscape:collect="always"
       xlink:href="#linearGradient902"
       id="linearGradient896"
       x1="109.23512"
       y1="-0.18898809"
       x2="108.57366"
       y2="95.438988"
       gradientUnits="userSpaceOnUse" />
    <linearGradient
       inkscape:collect="always"
       xlink:href="#linearGradient947"
       id="linearGradient941"
       x1="104.6994"
       y1="112.82589"
       x2="105.64435"
       y2="0"
       gradientUnits="userSpaceOnUse" />
    <clipPath
       clipPathUnits="userSpaceOnUse"
       id="clipPath354">
      <path
         style="fill:#ffffff;stroke:#000000;stroke-width:0.264583px;stroke-linecap:butt;stroke-linejoin:miter;stroke-opacity:1"
         d="M 0,0 V 95.25 H 216.95833 V 0 Z"
         id="path356" />
    </clipPath>
    <clipPath
       clipPathUnits="userSpaceOnUse"
       id="clipPath488">
      <path
         style="fill:none;stroke:#000000;stroke-width:0.264583px;stroke-linecap:butt;stroke-linejoin:miter;stroke-opacity:1"
         d="M 0,0 H 216.95833 V 95.25 H 0 Z"
         id="path490" />
    </clipPath>
  </defs>
  <sodipodi:namedview
     id="base"
     pagecolor="#b9b9b9"
     bordercolor="#666666"
     borderopacity="1.0"
     inkscape:pageopacity="1"
     inkscape:pageshadow="2"
     inkscape:zoom="1"
     inkscape:cx="357.8638"
     inkscape:cy="210.24152"
     inkscape:document-units="mm"
     inkscape:current-layer="g484"
     inkscape:document-rotation="0"
     showgrid="false"
     units="px"
     inkscape:pagecheckerboard="true"
     inkscape:window-width="1524"
     inkscape:window-height="728"
     inkscape:window-x="760"
     inkscape:window-y="160"
     inkscape:window-maximized="0"
     borderlayer="false"
     inkscape:showpageshadow="false"
     inkscape:snap-page="true" />
  <metadata
     id="metadata5">
    <rdf:RDF>
      <cc:Work
         rdf:about="">
        <dc:format>image/svg+xml</dc:format>
        <dc:type
           rdf:resource="http://purl.org/dc/dcmitype/StillImage" />
        <dc:title />
      </cc:Work>
    </rdf:RDF>
  </metadata>
  <g
     inkscape:groupmode="layer"
     id="layer3"
     inkscape:label="background"
     style="display:inline;opacity:1" />
  <g
     inkscape:groupmode="layer"
     id="layer4"
     inkscape:label="skyfilter" />
  <g
     inkscape:groupmode="layer"
     id="layer11"
     inkscape:label="s2" />
  <g
     inkscape:groupmode="layer"
     id="layer10"
     inkscape:label="s1" />
  <g
     inkscape:groupmode="layer"
     id="layer9"
     inkscape:label="sun"
     style="display:inline">
    <circle
       style="display:inline;opacity:1;fill:#fff50b;fill-opacity:0.996078;stroke:none;stroke-width:0.192095"
       id="path2628"
       cx="109.30787"
       cy="21.648834"
       r="0" />
  </g>
  <g
     inkscape:groupmode="layer"
     id="layer8"
     inkscape:label="photo" />
  <g
     inkscape:groupmode="layer"
     id="layer5"
     inkscape:label="zire1"
     style="display:inline" />
  <g
     inkscape:groupmode="layer"
     id="layer6"
     inkscape:label="zire2"
     style="display:inline;opacity:1" />
  <g
     inkscape:groupmode="layer"
     id="layer7"
     inkscape:label="zire3"
     style="display:inline" />
  <g
     inkscape:label="Layer 1"
     inkscape:groupmode="layer"
     id="layer1"
     style="display:inline" />
  <g
     inkscape:groupmode="layer"
     id="layer2"
     inkscape:label="palm" />
  <g
     inkscape:groupmode="layer"
     id="layer13"
     inkscape:label="houses" />
  <g
     inkscape:groupmode="layer"
     id="layer12"
     inkscape:label="skycloud"
     style="display:inline">
    <rect
       style="fill:#ffffff;fill-opacity:0.927419;stroke:none;stroke-width:0.263;stroke-miterlimit:4;stroke-dasharray:none"
       id="rect975"
       width="7.7485123"
       height="0"
       x="31.75"
       y="24.568455" />
    <g
       id="g1026"
       transform="translate(-51.782738,-10.205357)" />
    <g
       id="g484"
       clip-path="url(#clipPath488)"
       style="stroke:none">
      <rect
         style="display:inline;opacity:1;fill:#ffbe51;fill-opacity:1;stroke:none;stroke-width:0.263;stroke-miterlimit:4;stroke-dasharray:none"
         id="rect949"
         width="228.86458"
         height="104.13245"
         x="-3.96875"
         y="-5.8586307"
         clip-path="url(#clipPath354)" />
      <path
         style="display:inline;opacity:1;fill:#ffffff;fill-opacity:0.0604839;stroke:none;stroke-width:0.310878px;stroke-linecap:butt;stroke-linejoin:miter;stroke-opacity:1"
         d="m -14.122031,79.790751 c 46.649108,-11.078545 42.46533,-12.964254 51.669638,-8.721408 9.20431,4.242847 20.291317,18.14996 28.240492,13.199971 7.949174,-4.949989 14.224838,-16.97139 23.847531,-11.549974 9.62268,5.421416 59.61881,12.492827 68.19555,1.178569 8.57674,-11.314257 3.97458,-5.185703 9.83187,-11.314257 5.85729,-6.12856 9.2043,-0.471431 17.36267,0.235711 8.15837,0.707142 40.79182,15.557108 46.85829,16.26425 6.06649,0.707138 21.96483,-25.692799 15.68917,-29.464219 -6.27566,-3.77142 -17.36267,-20.742809 -28.44968,-18.621386 -11.08701,2.121424 -52.92477,-3.535705 -62.12908,3.77142 -9.20431,7.307126 -22.17401,6.364271 -27.82211,2.592852 -5.6481,-3.77142 -23.63833,-12.492828 -39.3275,-5.657131 C 74.15565,38.540848 66.834042,47.49797 55.956225,42.076554 45.078405,36.655138 4.0773965,30.526581 0.93956548,34.062287 -2.1982675,37.597994 -22.489584,63.29079 -22.489584,63.29079 l 7.112421,16.499961 z"
         id="path953" />
      <circle
         style="display:inline;opacity:1;fill:#ffcc00;fill-opacity:0.129032;stroke:none;stroke-width:0.212522"
         id="circle888"
         cx="108.74091"
         cy="21.648834"
         r="15.671627" />
      <ellipse
         style="display:inline;opacity:1;fill:#fef069;fill-opacity:1;stroke:none;stroke-width:0.182512"
         id="circle887"
         cx="108.55192"
         cy="21.554338"
         rx="13.419257"
         ry="13.498265" />
      <path
         style="fill:#fb7d00;fill-opacity:1;stroke:none;stroke-width:0.278423px;stroke-linecap:butt;stroke-linejoin:miter;stroke-opacity:1"
         d="m 94.236043,74.548579 1.479804,-12.96258 1.331825,-10.28987 1.331822,-7.34992 2.293706,-12.62848 -0.44395,-1.40317 0.59193,-6.1472 1.33182,-3.8754 h 1.84975 l 0.88789,3.20723 8.87883,0.13364 0.7399,-2.87315 1.92374,0.26727 1.10986,4.27631 0.22196,1.87089 v 1.80407 l -0.36994,2.13815 0.96187,6.88219 2.2197,14.23211 1.70178,16.03617 0.36995,6.34765 1.84976,-0.0668 0.29597,2.80633 -32.629704,0.13363 0.443942,-2.53905 z"
         id="path2639"
         sodipodi:nodetypes="cccccccccccccccccccccccccc" />
      <path
         style="display:inline;fill:none;stroke:none;stroke-width:0.264583px;stroke-linecap:butt;stroke-linejoin:miter;stroke-opacity:1"
         d="M 0,0 V 95.249999 H 216.95833 V 0 Z"
         id="path370" />
      <path
         style="display:inline;opacity:1;fill:#ffa207;fill-opacity:1;stroke:none;stroke-width:0.23665px;stroke-linecap:butt;stroke-linejoin:miter;stroke-opacity:1"
         d="m -24.417258,97.933692 c 0,0 33.4347425,-35.559782 53.105656,-30.540332 21.922619,5.59402 13.229165,17.08444 41.766366,9.222574 17.943831,-4.943443 31.399586,-14.339831 45.168176,-13.002318 26.45833,2.570226 47.24702,15.305315 57.26339,8.048206 9.14812,-6.628041 12.71518,-13.034939 22.67857,-11.37438 13.60715,2.267847 32.12798,11.33923 32.12798,11.33923 l 6.80357,24.795123 -4.91369,13.153515 -247.007458,0.60475 z"
         id="path2031"
         sodipodi:nodetypes="csssssccccc" />
      <g
         transform="matrix(9.2603902e-4,0,0,-9.2603902e-4,186.85269,61.526651)"
         fill="#000000"
         stroke="none"
         id="g932"
         style="display:inline;fill:#ffa207;fill-opacity:1;stroke:none">
        <path
           d="m 5766,12773 c -25,-50 -73,-197 -141,-429 -82,-284 -115,-386 -127,-399 -17,-16 -2,189 31,430 34,241 40,373 17,343 -7,-10 -29,-25 -50,-33 -24,-10 -36,-22 -36,-35 0,-10 -5,-22 -10,-25 -22,-14 -101,-197 -263,-614 -13,-34 -28,-58 -31,-52 -4,6 -12,103 -19,216 -6,113 -15,205 -20,205 -4,0 -37,-30 -73,-67 -71,-76 -75,-84 -158,-373 -70,-246 -205,-872 -221,-1032 -5,-49 -10,-58 -26,-58 -10,0 -19,5 -19,12 0,7 -11,28 -23,47 -13,20 -45,74 -72,121 -90,161 -195,310 -277,396 -45,47 -91,90 -102,96 -28,15 -52,-18 -61,-82 -4,-27 -11,-50 -16,-50 -11,0 -46,68 -93,183 -44,106 -91,185 -211,352 -49,69 -103,144 -119,166 -16,23 -48,61 -72,86 l -44,45 v -69 c 0,-40 8,-95 20,-133 11,-36 22,-80 25,-97 4,-35 -10,-45 -19,-15 -4,10 -22,36 -41,58 -19,21 -35,42 -35,46 0,3 -38,52 -85,108 -47,56 -85,106 -85,111 0,5 -15,26 -34,46 -18,21 -35,47 -37,58 -3,14 -13,21 -37,23 -17,2 -32,1 -32,-1 0,-2 13,-48 30,-103 16,-54 30,-116 30,-137 v -39 l -60,62 c -33,34 -60,66 -60,71 0,5 -15,26 -33,46 -19,21 -51,66 -72,100 -21,35 -44,68 -51,74 -25,20 -16,-63 21,-213 20,-77 34,-148 32,-157 -5,-21 -173,147 -280,281 -61,76 -95,109 -160,151 -45,30 -92,57 -105,60 -22,5 -23,3 -16,-26 26,-122 61,-184 363,-642 167,-253 332,-500 366,-550 58,-85 127,-246 111,-262 -9,-9 -48,20 -85,63 -18,22 -136,179 -261,349 -149,201 -257,338 -309,390 l -81,80 v -57 c 0,-33 9,-80 21,-112 21,-57 315,-541 459,-756 122,-183 240,-344 401,-546 222,-280 241,-300 328,-344 78,-39 78,-41 6,-57 -78,-18 -104,2 -297,217 -96,107 -314,332 -485,499 -285,279 -317,307 -394,347 -46,24 -85,44 -86,44 -2,0 -3,-12 -3,-27 0,-33 39,-99 81,-138 18,-16 72,-84 120,-150 49,-66 101,-136 118,-155 83,-100 63,-131 -40,-62 -102,68 -318,195 -354,208 -16,6 -46,21 -65,33 -19,11 -43,21 -52,21 -20,0 -17,-10 36,-152 48,-130 47,-136 -14,-93 -59,41 -660,360 -910,482 -257,125 -515,226 -615,240 -25,3 -45,3 -45,-1 0,-4 13,-32 29,-64 40,-77 91,-124 256,-231 181,-116 200,-128 224,-136 12,-4 21,-15 21,-26 0,-19 -5,-20 -88,-13 -68,5 -152,26 -382,94 -162,49 -308,90 -324,92 l -30,3 3,-59 c 4,-98 6,-99 286,-210 176,-69 396,-134 518,-151 36,-6 47,-11 47,-25 0,-22 -12,-24 -385,-50 -367,-26 -379,-28 -418,-56 -18,-13 -42,-29 -54,-35 -13,-7 -23,-15 -23,-18 1,-3 47,-28 103,-54 l 102,-48 261,55 c 374,79 526,106 635,113 114,7 138,2 182,-37 19,-16 46,-34 61,-40 18,-7 26,-16 24,-28 -2,-13 -18,-19 -65,-24 -34,-4 -95,-16 -135,-27 -149,-42 -435,-140 -484,-166 l -51,-26 9,-62 c 4,-34 10,-73 13,-87 l 6,-25 157,12 c 275,22 348,39 672,156 109,40 174,59 280,84 18,4 -10,-30 -105,-126 -71,-71 -127,-132 -125,-134 18,-17 141,-27 319,-27 384,0 542,-23 780,-112 130,-48 409,-186 461,-228 l 25,-20 h -93 c -59,0 -103,5 -120,14 -48,24 -478,165 -584,192 -141,34 -296,41 -461,20 -72,-10 -265,-21 -445,-26 -345,-10 -424,-20 -637,-74 -180,-46 -352,-75 -760,-127 -268,-34 -335,-46 -359,-62 -16,-11 -45,-26 -65,-33 -29,-10 -37,-18 -39,-42 -3,-29 -2,-29 59,-36 136,-14 273,-8 699,29 102,9 250,15 330,13 l 145,-3 -60,-31 c -123,-65 -213,-76 -730,-89 -214,-6 -331,-14 -418,-31 -23,-5 -26,-8 -16,-21 7,-8 35,-26 63,-40 104,-53 108,-53 364,-43 339,14 467,26 653,60 90,17 184,30 209,30 l 45,-1 -55,-29 c -67,-35 -77,-38 -475,-143 -176,-47 -366,-99 -422,-117 -98,-31 -103,-34 -103,-60 0,-28 1,-28 73,-35 52,-5 106,-1 197,14 165,27 255,54 495,149 204,81 275,102 346,102 h 41 l -30,-25 c -17,-14 -32,-25 -35,-25 -3,0 -28,-16 -56,-35 -29,-19 -234,-127 -457,-241 -324,-165 -407,-211 -415,-231 -20,-52 -17,-53 135,-17 289,68 364,95 562,206 78,43 145,78 150,78 4,0 43,16 86,37 43,20 81,33 85,30 9,-10 -36,-56 -72,-74 -16,-8 -50,-34 -75,-58 -25,-23 -128,-108 -230,-187 l -185,-145 -18,-66 c -9,-36 -17,-88 -17,-116 0,-46 2,-50 18,-42 9,5 52,25 95,45 44,20 226,136 415,264 580,394 1014,682 1066,710 46,23 64,26 181,29 l 130,3 -45,-18 c -70,-27 -90,-39 -422,-264 C 1654,8656 1270,8377 1127,8241 947,8069 831,7860 790,7635 759,7462 729,7148 723,6945 l -6,-220 28,25 c 45,42 81,126 99,235 39,231 89,464 111,515 13,30 26,67 29,83 7,31 36,37 36,7 0,-11 -18,-187 -40,-391 -22,-204 -40,-399 -40,-432 v -61 l 55,54 c 68,67 69,71 180,525 47,193 89,359 94,370 18,37 12,-175 -8,-320 -37,-265 -37,-273 -2,-325 17,-25 31,-53 31,-64 0,-15 5,-17 28,-11 36,9 44,19 74,95 24,58 28,91 42,310 9,135 18,299 22,365 7,136 20,189 68,263 38,60 29,71 97,-104 23,-60 52,-121 65,-136 12,-16 26,-38 29,-49 9,-26 20,-12 35,41 11,40 40,364 40,445 0,51 1,54 38,74 90,48 163,83 167,79 3,-3 8,-80 12,-172 3,-91 9,-165 12,-164 3,2 35,18 69,37 83,45 107,87 173,296 27,88 56,173 62,189 l 13,28 39,-66 c 21,-37 54,-85 73,-107 34,-39 35,-40 55,-22 32,28 105,147 160,257 27,56 58,111 70,123 11,12 54,37 96,54 108,45 177,80 320,166 197,118 247,127 204,39 -35,-71 -156,-206 -423,-471 -274,-271 -350,-356 -350,-385 0,-32 42,-50 141,-61 109,-11 141,-22 133,-44 -9,-22 -146,-110 -328,-209 -258,-141 -336,-199 -336,-253 0,-32 33,-43 124,-43 121,0 123,-32 8,-127 -31,-27 -106,-80 -165,-118 -381,-248 -413,-272 -394,-291 7,-7 46,1 152,30 90,25 84,2 -35,-133 -39,-44 -104,-105 -145,-136 -82,-62 -95,-78 -95,-126 0,-31 0,-32 41,-26 72,10 251,125 444,287 66,55 90,64 80,28 -22,-71 -57,-132 -117,-201 -192,-223 -293,-433 -248,-517 14,-26 65,-42 98,-29 41,15 97,75 154,164 123,191 145,222 177,258 41,45 77,51 66,10 -3,-15 -41,-104 -84,-198 -98,-213 -121,-274 -124,-333 -2,-44 0,-47 24,-50 69,-8 155,117 449,653 208,378 303,538 358,598 56,59 65,26 50,-165 -9,-104 -9,-143 0,-163 24,-52 71,-23 163,101 62,84 163,256 338,573 89,162 169,304 177,315 13,19 14,18 14,-17 0,-131 -101,-429 -293,-867 -52,-118 -99,-231 -105,-250 -15,-44 -18,-92 -8,-108 10,-16 45,-15 76,3 39,22 69,19 80,-9 12,-32 0,-101 -44,-262 -60,-216 -80,-356 -56,-394 7,-12 12,-11 30,5 35,32 90,132 140,255 59,146 64,148 176,55 43,-36 86,-64 94,-63 41,8 104,308 195,928 36,245 69,454 72,465 4,15 12,-1 29,-55 13,-44 32,-82 45,-92 76,-63 244,47 373,242 75,114 123,153 221,177 59,14 77,14 218,-1 85,-9 168,-21 185,-27 45,-15 68,2 87,63 8,28 15,79 15,113 0,178 -151,526 -252,580 l -37,19 -60,-29 c -34,-16 -63,-36 -66,-44 -3,-9 -23,-27 -44,-41 -47,-29 -58,-48 -65,-119 -3,-31 -13,-62 -23,-73 -28,-31 -107,-67 -184,-85 -65,-14 -73,-14 -115,2 -77,29 -111,96 -140,273 -21,132 -33,179 -61,234 -31,63 -53,76 -154,90 -140,19 -139,19 -168,-31 -14,-24 -30,-44 -36,-45 -20,-2 -97,175 -82,190 2,2 17,0 33,-6 43,-17 69,-5 108,50 20,27 40,50 46,50 5,0 32,-20 59,-45 57,-50 94,-61 182,-51 117,12 128,-5 188,-293 44,-211 62,-254 104,-259 22,-3 33,6 69,55 24,32 67,105 97,161 29,56 71,122 93,146 32,38 48,47 96,57 77,16 123,40 193,105 32,30 64,54 71,54 6,0 33,-23 59,-51 30,-33 49,-47 54,-39 18,29 -38,259 -100,411 -25,61 -45,121 -45,134 0,67 79,74 310,30 233,-45 269,-36 194,47 -19,22 -34,45 -32,51 2,7 22,20 44,30 106,49 111,57 64,110 -30,35 -143,99 -233,132 -26,10 -59,29 -73,42 -23,21 -26,30 -22,76 5,66 48,134 173,277 343,393 518,706 650,1160 62,213 49,249 -42,120 -134,-190 -191,-255 -209,-238 -10,11 18,88 118,331 103,250 135,345 125,371 -6,15 -10,15 -34,2 -62,-32 -146,-141 -253,-326 -119,-206 -146,-232 -138,-132 6,68 48,176 263,668 86,195 158,368 162,384 9,50 -23,37 -96,-38 -61,-63 -93,-111 -197,-296 -57,-102 -69,-100 -60,10 4,49 13,145 21,214 28,250 21,350 -19,273 z"
           id="path922"
           style="fill:#ffa207;fill-opacity:1;stroke:none" />
        <path
           d="m 7840,11628 c -56,-39 -207,-168 -370,-317 -86,-78 -144,-123 -185,-142 -76,-35 -115,-45 -115,-29 0,28 33,66 220,255 133,134 201,210 206,229 7,29 6,29 -27,22 -19,-3 -56,-21 -84,-39 -27,-19 -68,-45 -90,-59 -22,-14 -116,-94 -209,-179 -221,-201 -601,-527 -746,-640 -200,-157 -344,-247 -560,-352 -113,-55 -216,-108 -230,-117 -14,-10 -36,-21 -50,-25 -14,-4 -33,-14 -43,-23 -17,-15 -16,-18 20,-54 43,-44 57,-46 223,-23 96,13 323,70 367,93 10,5 30,12 46,16 37,9 36,-13 -4,-76 -30,-47 -31,-49 -14,-74 9,-14 44,-39 78,-54 129,-62 248,-65 382,-10 44,18 107,34 140,37 57,5 59,4 43,-12 -9,-10 -32,-27 -51,-39 -20,-11 -70,-45 -113,-73 -43,-29 -94,-56 -113,-60 -37,-7 -142,7 -396,51 -202,36 -418,51 -506,36 -43,-7 -69,-16 -66,-23 2,-6 44,-35 93,-64 49,-28 104,-68 122,-87 42,-47 44,-110 5,-190 l -27,-55 27,-51 c 33,-64 33,-75 2,-112 -54,-64 -44,-88 237,-558 204,-340 349,-606 411,-750 76,-179 122,-375 162,-690 41,-319 68,-460 115,-600 27,-78 139,-321 186,-400 64,-110 147,-167 266,-185 l 47,-7 -24,88 c -30,113 -36,128 -198,494 -75,168 -141,325 -147,350 -6,25 -10,70 -8,100 l 3,55 52,-100 c 28,-55 117,-217 196,-360 120,-216 151,-263 179,-280 19,-11 51,-33 71,-50 56,-46 95,-75 101,-75 12,0 5,166 -8,218 -19,70 -52,131 -145,271 -155,233 -305,500 -321,573 -7,29 -10,69 -8,87 l 3,35 40,-65 c 21,-35 58,-89 81,-119 22,-30 92,-129 154,-220 145,-212 168,-240 190,-240 13,0 20,-9 22,-27 2,-19 10,-29 23,-31 11,-2 37,-20 58,-40 l 37,-36 v 70 c 0,39 -5,86 -12,105 -17,51 -228,424 -327,579 -48,74 -161,236 -251,360 -233,320 -588,867 -679,1048 -16,32 -36,64 -45,71 -14,12 -14,14 0,29 19,18 19,18 70,-81 63,-122 222,-323 373,-469 207,-202 906,-753 1130,-892 123,-76 163,-92 274,-111 50,-9 166,-41 257,-70 154,-51 321,-95 356,-95 24,0 11,42 -42,133 -25,44 -44,81 -41,83 2,2 41,-10 86,-26 73,-27 231,-53 231,-38 0,36 -76,163 -131,217 -19,19 -97,58 -226,112 -315,131 -403,180 -371,206 20,16 77,32 158,43 127,18 140,21 140,30 0,10 -55,27 -300,94 -184,49 -361,111 -555,194 -176,74 -570,261 -624,296 -41,26 -43,29 -25,39 38,22 219,10 374,-23 80,-17 197,-42 260,-56 193,-40 349,-29 321,24 -5,10 -41,35 -80,57 -39,22 -71,43 -71,47 0,29 280,47 726,48 261,0 358,6 349,20 -9,15 -140,59 -205,69 -35,6 -154,15 -265,21 -407,21 -559,36 -608,62 -30,15 -11,25 70,36 126,18 179,21 574,42 208,11 398,24 424,29 88,17 85,48 -7,62 -29,5 -179,20 -333,34 -403,37 -529,55 -508,76 5,5 53,16 108,24 88,13 202,22 738,55 87,5 167,14 177,20 42,23 17,71 -48,91 -65,20 -409,23 -567,4 -162,-19 -667,-32 -704,-18 -29,11 49,34 459,133 297,71 461,122 498,156 l 27,24 -24,20 c -32,27 -89,26 -211,-5 -315,-80 -1380,-201 -1380,-157 0,17 77,36 340,87 407,79 690,151 690,176 0,16 -95,10 -455,-26 -462,-46 -765,-60 -765,-35 0,14 117,60 367,144 271,92 419,150 490,192 59,34 113,92 113,121 0,48 -86,43 -331,-18 -142,-35 -249,-49 -249,-34 0,4 7,19 14,34 10,19 31,34 63,46 190,71 464,205 546,268 56,42 98,101 90,125 -9,23 -79,12 -338,-53 -143,-36 -263,-64 -268,-62 -4,1 90,54 210,116 405,212 526,284 594,352 44,44 48,63 17,80 -36,20 -127,4 -241,-42 -59,-23 -110,-39 -113,-36 -13,13 27,57 148,166 68,60 154,146 192,190 38,44 77,83 87,86 20,7 44,43 35,52 -8,8 -96,-36 -396,-199 -327,-178 -390,-211 -390,-202 0,11 42,67 155,204 128,156 195,248 195,267 0,23 -43,14 -90,-19 z"
           id="path924"
           style="fill:#ffa207;fill-opacity:1;stroke:none" />
        <path
           d="m 5244,9376 c -3,-9 4,-39 16,-67 12,-28 28,-81 36,-118 20,-93 39,-438 30,-544 -7,-82 -9,-88 -29,-85 -24,3 -149,148 -199,230 -10,15 -22,28 -28,28 -25,0 -3,-62 78,-222 202,-398 255,-621 184,-772 -16,-34 -46,-78 -67,-98 -33,-33 -44,-38 -86,-38 -50,0 -177,31 -324,79 l -89,29 -17,-36 c -9,-21 -26,-46 -39,-57 -55,-48 -80,-96 -80,-152 0,-140 180,-824 231,-878 19,-19 19,-18 19,46 0,36 -11,162 -25,279 -25,206 -30,320 -11,275 44,-109 75,-204 132,-400 96,-331 130,-423 172,-465 19,-19 45,-51 58,-72 38,-60 44,-56 44,25 0,47 -27,223 -75,496 -41,232 -75,434 -75,448 0,48 17,11 43,-97 48,-194 187,-611 234,-702 25,-49 49,-88 54,-88 5,0 9,54 9,120 0,107 -6,148 -60,405 -34,162 -59,308 -59,338 1,29 4,43 6,33 3,-11 61,-179 130,-375 69,-196 135,-383 145,-416 11,-33 27,-77 36,-98 15,-36 16,-37 33,-20 24,25 59,150 59,212 0,29 -25,159 -55,290 -30,130 -62,281 -70,335 -20,136 -46,506 -35,506 7,0 38,-119 125,-480 161,-667 182,-739 250,-835 20,-27 50,-72 68,-100 l 32,-50 3,63 c 2,40 -7,112 -23,193 -15,72 -24,133 -22,136 10,9 86,-111 151,-237 35,-69 76,-136 90,-149 l 26,-24 v 45 c 0,86 -40,283 -122,593 -116,445 -188,644 -343,955 -29,58 -78,162 -109,232 -54,122 -56,131 -55,210 v 83 l 51,-100 c 28,-55 112,-226 186,-380 301,-626 383,-840 492,-1276 61,-244 97,-353 128,-390 29,-36 47,-36 68,-4 35,54 -4,245 -140,695 -129,427 -233,715 -348,970 -121,268 -211,513 -252,690 -8,35 -13,66 -11,68 10,10 75,-118 267,-523 115,-242 230,-475 256,-519 52,-87 101,-136 135,-136 54,1 70,42 57,147 -24,189 -71,292 -378,833 -300,528 -490,752 -747,881 -95,47 -152,60 -161,35 z"
           id="path926"
           style="fill:#ffa207;fill-opacity:1;stroke:none" />
        <path
           d="m 4233,7371 c -139,-104 -183,-162 -183,-240 0,-66 23,-117 85,-188 25,-28 45,-53 45,-55 0,-2 -19,-2 -43,0 -31,3 -49,-2 -67,-16 -23,-18 -25,-27 -23,-88 3,-94 34,-190 78,-241 19,-23 35,-43 35,-46 0,-2 -18,-7 -39,-11 -25,-4 -46,-15 -55,-28 -22,-31 -20,-106 4,-203 21,-82 41,-122 66,-132 23,-9 16,-21 -10,-16 -58,11 -91,-85 -84,-241 5,-99 24,-150 72,-195 35,-33 33,-41 -13,-41 -69,0 -91,-39 -91,-160 0,-128 15,-175 73,-237 l 50,-53 h -45 c -24,0 -52,-6 -62,-13 -27,-20 -35,-80 -25,-184 10,-112 24,-168 50,-204 25,-35 24,-39 -6,-39 -53,0 -74,-92 -56,-255 8,-68 19,-116 36,-151 14,-28 25,-53 25,-56 0,-3 -11,-9 -25,-12 -47,-12 -59,-46 -52,-149 7,-102 29,-187 59,-230 19,-26 19,-27 1,-33 -71,-21 -99,-63 -109,-161 -11,-100 -1,-128 73,-205 l 66,-68 h -66 c -97,0 -102,-10 -94,-188 4,-75 14,-168 22,-207 8,-38 15,-71 15,-73 0,-1 -11,-7 -24,-12 -34,-13 -46,-62 -46,-196 0,-153 4,-170 51,-197 47,-26 49,-37 9,-37 -46,0 -80,-21 -101,-62 -28,-55 -45,-227 -32,-322 10,-72 14,-79 67,-138 l 56,-63 -67,-11 c -54,-8 -71,-16 -93,-41 -40,-45 -52,-112 -40,-229 11,-108 14,-116 64,-163 20,-19 36,-43 36,-52 0,-16 -4,-15 -51,4 -45,19 -53,20 -76,7 -38,-22 -60,-55 -93,-145 -44,-116 -55,-192 -40,-268 45,-232 269,-318 606,-232 105,27 528,146 551,155 38,16 47,75 48,320 0,229 -6,304 -28,333 -10,15 -21,15 -80,6 -38,-6 -71,-8 -74,-5 -12,12 19,52 62,79 62,40 84,80 106,204 10,58 19,111 19,116 0,10 -172,3 -202,-8 -27,-11 -10,32 23,58 110,84 111,86 133,222 9,55 18,113 21,129 5,28 4,28 -32,23 -21,-4 -75,-9 -120,-13 -69,-6 -83,-4 -83,7 0,18 170,199 187,199 17,0 33,65 33,135 0,88 -3,90 -94,76 -42,-6 -83,-11 -91,-11 -31,0 -13,30 43,72 31,24 65,59 74,79 43,86 30,248 -22,301 -25,24 -36,28 -87,28 l -58,1 36,32 c 21,17 55,44 77,59 47,31 62,70 62,161 0,100 -23,132 -112,151 -38,9 -35,30 12,86 56,67 82,132 88,218 6,91 -16,155 -62,183 -17,10 -39,19 -49,19 -32,0 -30,28 7,71 45,54 60,120 61,271 0,103 -2,120 -21,145 -12,15 -31,29 -43,31 -11,2 -21,5 -21,7 0,1 13,27 28,57 32,60 57,191 48,243 -9,45 -29,58 -84,57 l -47,-2 57,53 c 31,28 64,67 73,86 26,52 30,129 11,214 -18,82 -46,127 -77,127 -18,0 -17,3 8,24 27,24 28,27 27,123 -1,106 -18,170 -56,210 -12,13 -30,23 -40,23 -23,0 -23,15 0,48 40,58 72,184 72,283 0,76 -12,98 -60,108 -38,8 -37,5 -20,91 17,81 24,605 10,715 -14,115 -42,198 -73,220 -44,31 -89,20 -174,-44 z"
           id="path928"
           style="fill:#ffa207;fill-opacity:1;stroke:none" />
        <path
           d="m 3035,1010 c -110,-12 -521,-77 -590,-95 -42,-10 -55,-20 -82,-58 -42,-60 -51,-95 -27,-103 11,-3 71,-27 134,-54 63,-27 140,-56 170,-64 95,-28 95,-24 -11,-133 -52,-54 -106,-114 -119,-133 -14,-19 -33,-44 -43,-55 -10,-11 -27,-35 -38,-54 l -20,-34 63,7 c 187,19 223,19 256,2 32,-17 53,-64 67,-154 14,-87 13,-85 50,-78 19,4 119,49 223,101 104,52 199,95 211,95 12,0 37,-16 57,-35 44,-45 71,-45 190,-3 104,37 114,35 206,-33 74,-56 115,-67 173,-45 25,10 73,37 108,59 56,38 68,42 123,42 64,0 73,-4 292,-120 91,-49 96,-50 193,-53 93,-4 111,1 90,23 -15,17 -100,215 -92,215 5,0 68,-9 142,-21 137,-21 216,-21 229,1 4,7 13,39 20,72 l 13,59 21,-20 c 30,-27 327,-211 342,-211 7,0 19,-3 27,-6 11,-4 19,12 32,70 20,91 37,108 100,99 52,-7 79,15 89,73 11,63 27,94 51,100 13,3 63,1 112,-5 48,-6 146,-11 218,-11 h 129 l -68,69 c -93,94 -236,163 -466,225 -331,89 -490,111 -750,103 -228,-7 -347,-29 -670,-127 -74,-22 -180,-52 -236,-66 -152,-40 -149,-42 -329,137 -124,125 -162,156 -221,186 -66,32 -80,35 -175,38 -57,2 -144,0 -194,-5 z"
           id="path930"
           style="fill:#ffa207;fill-opacity:1;stroke:none" />
      </g>
      <g
         transform="matrix(7.1834904e-4,0,0,-7.1834904e-4,175.09857,68.782254)"
         fill="#000000"
         stroke="none"
         id="g944"
         style="display:inline;fill:#ffa207;fill-opacity:1;stroke:none">
        <path
           d="m 5766,12773 c -25,-50 -73,-197 -141,-429 -82,-284 -115,-386 -127,-399 -17,-16 -2,189 31,430 34,241 40,373 17,343 -7,-10 -29,-25 -50,-33 -24,-10 -36,-22 -36,-35 0,-10 -5,-22 -10,-25 -22,-14 -101,-197 -263,-614 -13,-34 -28,-58 -31,-52 -4,6 -12,103 -19,216 -6,113 -15,205 -20,205 -4,0 -37,-30 -73,-67 -71,-76 -75,-84 -158,-373 -70,-246 -205,-872 -221,-1032 -5,-49 -10,-58 -26,-58 -10,0 -19,5 -19,12 0,7 -11,28 -23,47 -13,20 -45,74 -72,121 -90,161 -195,310 -277,396 -45,47 -91,90 -102,96 -28,15 -52,-18 -61,-82 -4,-27 -11,-50 -16,-50 -11,0 -46,68 -93,183 -44,106 -91,185 -211,352 -49,69 -103,144 -119,166 -16,23 -48,61 -72,86 l -44,45 v -69 c 0,-40 8,-95 20,-133 11,-36 22,-80 25,-97 4,-35 -10,-45 -19,-15 -4,10 -22,36 -41,58 -19,21 -35,42 -35,46 0,3 -38,52 -85,108 -47,56 -85,106 -85,111 0,5 -15,26 -34,46 -18,21 -35,47 -37,58 -3,14 -13,21 -37,23 -17,2 -32,1 -32,-1 0,-2 13,-48 30,-103 16,-54 30,-116 30,-137 v -39 l -60,62 c -33,34 -60,66 -60,71 0,5 -15,26 -33,46 -19,21 -51,66 -72,100 -21,35 -44,68 -51,74 -25,20 -16,-63 21,-213 20,-77 34,-148 32,-157 -5,-21 -173,147 -280,281 -61,76 -95,109 -160,151 -45,30 -92,57 -105,60 -22,5 -23,3 -16,-26 26,-122 61,-184 363,-642 167,-253 332,-500 366,-550 58,-85 127,-246 111,-262 -9,-9 -48,20 -85,63 -18,22 -136,179 -261,349 -149,201 -257,338 -309,390 l -81,80 v -57 c 0,-33 9,-80 21,-112 21,-57 315,-541 459,-756 122,-183 240,-344 401,-546 222,-280 241,-300 328,-344 78,-39 78,-41 6,-57 -78,-18 -104,2 -297,217 -96,107 -314,332 -485,499 -285,279 -317,307 -394,347 -46,24 -85,44 -86,44 -2,0 -3,-12 -3,-27 0,-33 39,-99 81,-138 18,-16 72,-84 120,-150 49,-66 101,-136 118,-155 83,-100 63,-131 -40,-62 -102,68 -318,195 -354,208 -16,6 -46,21 -65,33 -19,11 -43,21 -52,21 -20,0 -17,-10 36,-152 48,-130 47,-136 -14,-93 -59,41 -660,360 -910,482 -257,125 -515,226 -615,240 -25,3 -45,3 -45,-1 0,-4 13,-32 29,-64 40,-77 91,-124 256,-231 181,-116 200,-128 224,-136 12,-4 21,-15 21,-26 0,-19 -5,-20 -88,-13 -68,5 -152,26 -382,94 -162,49 -308,90 -324,92 l -30,3 3,-59 c 4,-98 6,-99 286,-210 176,-69 396,-134 518,-151 36,-6 47,-11 47,-25 0,-22 -12,-24 -385,-50 -367,-26 -379,-28 -418,-56 -18,-13 -42,-29 -54,-35 -13,-7 -23,-15 -23,-18 1,-3 47,-28 103,-54 l 102,-48 261,55 c 374,79 526,106 635,113 114,7 138,2 182,-37 19,-16 46,-34 61,-40 18,-7 26,-16 24,-28 -2,-13 -18,-19 -65,-24 -34,-4 -95,-16 -135,-27 -149,-42 -435,-140 -484,-166 l -51,-26 9,-62 c 4,-34 10,-73 13,-87 l 6,-25 157,12 c 275,22 348,39 672,156 109,40 174,59 280,84 18,4 -10,-30 -105,-126 -71,-71 -127,-132 -125,-134 18,-17 141,-27 319,-27 384,0 542,-23 780,-112 130,-48 409,-186 461,-228 l 25,-20 h -93 c -59,0 -103,5 -120,14 -48,24 -478,165 -584,192 -141,34 -296,41 -461,20 -72,-10 -265,-21 -445,-26 -345,-10 -424,-20 -637,-74 -180,-46 -352,-75 -760,-127 -268,-34 -335,-46 -359,-62 -16,-11 -45,-26 -65,-33 -29,-10 -37,-18 -39,-42 -3,-29 -2,-29 59,-36 136,-14 273,-8 699,29 102,9 250,15 330,13 l 145,-3 -60,-31 c -123,-65 -213,-76 -730,-89 -214,-6 -331,-14 -418,-31 -23,-5 -26,-8 -16,-21 7,-8 35,-26 63,-40 104,-53 108,-53 364,-43 339,14 467,26 653,60 90,17 184,30 209,30 l 45,-1 -55,-29 c -67,-35 -77,-38 -475,-143 -176,-47 -366,-99 -422,-117 -98,-31 -103,-34 -103,-60 0,-28 1,-28 73,-35 52,-5 106,-1 197,14 165,27 255,54 495,149 204,81 275,102 346,102 h 41 l -30,-25 c -17,-14 -32,-25 -35,-25 -3,0 -28,-16 -56,-35 -29,-19 -234,-127 -457,-241 -324,-165 -407,-211 -415,-231 -20,-52 -17,-53 135,-17 289,68 364,95 562,206 78,43 145,78 150,78 4,0 43,16 86,37 43,20 81,33 85,30 9,-10 -36,-56 -72,-74 -16,-8 -50,-34 -75,-58 -25,-23 -128,-108 -230,-187 l -185,-145 -18,-66 c -9,-36 -17,-88 -17,-116 0,-46 2,-50 18,-42 9,5 52,25 95,45 44,20 226,136 415,264 580,394 1014,682 1066,710 46,23 64,26 181,29 l 130,3 -45,-18 c -70,-27 -90,-39 -422,-264 C 1654,8656 1270,8377 1127,8241 947,8069 831,7860 790,7635 759,7462 729,7148 723,6945 l -6,-220 28,25 c 45,42 81,126 99,235 39,231 89,464 111,515 13,30 26,67 29,83 7,31 36,37 36,7 0,-11 -18,-187 -40,-391 -22,-204 -40,-399 -40,-432 v -61 l 55,54 c 68,67 69,71 180,525 47,193 89,359 94,370 18,37 12,-175 -8,-320 -37,-265 -37,-273 -2,-325 17,-25 31,-53 31,-64 0,-15 5,-17 28,-11 36,9 44,19 74,95 24,58 28,91 42,310 9,135 18,299 22,365 7,136 20,189 68,263 38,60 29,71 97,-104 23,-60 52,-121 65,-136 12,-16 26,-38 29,-49 9,-26 20,-12 35,41 11,40 40,364 40,445 0,51 1,54 38,74 90,48 163,83 167,79 3,-3 8,-80 12,-172 3,-91 9,-165 12,-164 3,2 35,18 69,37 83,45 107,87 173,296 27,88 56,173 62,189 l 13,28 39,-66 c 21,-37 54,-85 73,-107 34,-39 35,-40 55,-22 32,28 105,147 160,257 27,56 58,111 70,123 11,12 54,37 96,54 108,45 177,80 320,166 197,118 247,127 204,39 -35,-71 -156,-206 -423,-471 -274,-271 -350,-356 -350,-385 0,-32 42,-50 141,-61 109,-11 141,-22 133,-44 -9,-22 -146,-110 -328,-209 -258,-141 -336,-199 -336,-253 0,-32 33,-43 124,-43 121,0 123,-32 8,-127 -31,-27 -106,-80 -165,-118 -381,-248 -413,-272 -394,-291 7,-7 46,1 152,30 90,25 84,2 -35,-133 -39,-44 -104,-105 -145,-136 -82,-62 -95,-78 -95,-126 0,-31 0,-32 41,-26 72,10 251,125 444,287 66,55 90,64 80,28 -22,-71 -57,-132 -117,-201 -192,-223 -293,-433 -248,-517 14,-26 65,-42 98,-29 41,15 97,75 154,164 123,191 145,222 177,258 41,45 77,51 66,10 -3,-15 -41,-104 -84,-198 -98,-213 -121,-274 -124,-333 -2,-44 0,-47 24,-50 69,-8 155,117 449,653 208,378 303,538 358,598 56,59 65,26 50,-165 -9,-104 -9,-143 0,-163 24,-52 71,-23 163,101 62,84 163,256 338,573 89,162 169,304 177,315 13,19 14,18 14,-17 0,-131 -101,-429 -293,-867 -52,-118 -99,-231 -105,-250 -15,-44 -18,-92 -8,-108 10,-16 45,-15 76,3 39,22 69,19 80,-9 12,-32 0,-101 -44,-262 -60,-216 -80,-356 -56,-394 7,-12 12,-11 30,5 35,32 90,132 140,255 59,146 64,148 176,55 43,-36 86,-64 94,-63 41,8 104,308 195,928 36,245 69,454 72,465 4,15 12,-1 29,-55 13,-44 32,-82 45,-92 76,-63 244,47 373,242 75,114 123,153 221,177 59,14 77,14 218,-1 85,-9 168,-21 185,-27 45,-15 68,2 87,63 8,28 15,79 15,113 0,178 -151,526 -252,580 l -37,19 -60,-29 c -34,-16 -63,-36 -66,-44 -3,-9 -23,-27 -44,-41 -47,-29 -58,-48 -65,-119 -3,-31 -13,-62 -23,-73 -28,-31 -107,-67 -184,-85 -65,-14 -73,-14 -115,2 -77,29 -111,96 -140,273 -21,132 -33,179 -61,234 -31,63 -53,76 -154,90 -140,19 -139,19 -168,-31 -14,-24 -30,-44 -36,-45 -20,-2 -97,175 -82,190 2,2 17,0 33,-6 43,-17 69,-5 108,50 20,27 40,50 46,50 5,0 32,-20 59,-45 57,-50 94,-61 182,-51 117,12 128,-5 188,-293 44,-211 62,-254 104,-259 22,-3 33,6 69,55 24,32 67,105 97,161 29,56 71,122 93,146 32,38 48,47 96,57 77,16 123,40 193,105 32,30 64,54 71,54 6,0 33,-23 59,-51 30,-33 49,-47 54,-39 18,29 -38,259 -100,411 -25,61 -45,121 -45,134 0,67 79,74 310,30 233,-45 269,-36 194,47 -19,22 -34,45 -32,51 2,7 22,20 44,30 106,49 111,57 64,110 -30,35 -143,99 -233,132 -26,10 -59,29 -73,42 -23,21 -26,30 -22,76 5,66 48,134 173,277 343,393 518,706 650,1160 62,213 49,249 -42,120 -134,-190 -191,-255 -209,-238 -10,11 18,88 118,331 103,250 135,345 125,371 -6,15 -10,15 -34,2 -62,-32 -146,-141 -253,-326 -119,-206 -146,-232 -138,-132 6,68 48,176 263,668 86,195 158,368 162,384 9,50 -23,37 -96,-38 -61,-63 -93,-111 -197,-296 -57,-102 -69,-100 -60,10 4,49 13,145 21,214 28,250 21,350 -19,273 z"
           id="path934"
           style="fill:#ffa207;fill-opacity:1;stroke:none" />
        <path
           d="m 7840,11628 c -56,-39 -207,-168 -370,-317 -86,-78 -144,-123 -185,-142 -76,-35 -115,-45 -115,-29 0,28 33,66 220,255 133,134 201,210 206,229 7,29 6,29 -27,22 -19,-3 -56,-21 -84,-39 -27,-19 -68,-45 -90,-59 -22,-14 -116,-94 -209,-179 -221,-201 -601,-527 -746,-640 -200,-157 -344,-247 -560,-352 -113,-55 -216,-108 -230,-117 -14,-10 -36,-21 -50,-25 -14,-4 -33,-14 -43,-23 -17,-15 -16,-18 20,-54 43,-44 57,-46 223,-23 96,13 323,70 367,93 10,5 30,12 46,16 37,9 36,-13 -4,-76 -30,-47 -31,-49 -14,-74 9,-14 44,-39 78,-54 129,-62 248,-65 382,-10 44,18 107,34 140,37 57,5 59,4 43,-12 -9,-10 -32,-27 -51,-39 -20,-11 -70,-45 -113,-73 -43,-29 -94,-56 -113,-60 -37,-7 -142,7 -396,51 -202,36 -418,51 -506,36 -43,-7 -69,-16 -66,-23 2,-6 44,-35 93,-64 49,-28 104,-68 122,-87 42,-47 44,-110 5,-190 l -27,-55 27,-51 c 33,-64 33,-75 2,-112 -54,-64 -44,-88 237,-558 204,-340 349,-606 411,-750 76,-179 122,-375 162,-690 41,-319 68,-460 115,-600 27,-78 139,-321 186,-400 64,-110 147,-167 266,-185 l 47,-7 -24,88 c -30,113 -36,128 -198,494 -75,168 -141,325 -147,350 -6,25 -10,70 -8,100 l 3,55 52,-100 c 28,-55 117,-217 196,-360 120,-216 151,-263 179,-280 19,-11 51,-33 71,-50 56,-46 95,-75 101,-75 12,0 5,166 -8,218 -19,70 -52,131 -145,271 -155,233 -305,500 -321,573 -7,29 -10,69 -8,87 l 3,35 40,-65 c 21,-35 58,-89 81,-119 22,-30 92,-129 154,-220 145,-212 168,-240 190,-240 13,0 20,-9 22,-27 2,-19 10,-29 23,-31 11,-2 37,-20 58,-40 l 37,-36 v 70 c 0,39 -5,86 -12,105 -17,51 -228,424 -327,579 -48,74 -161,236 -251,360 -233,320 -588,867 -679,1048 -16,32 -36,64 -45,71 -14,12 -14,14 0,29 19,18 19,18 70,-81 63,-122 222,-323 373,-469 207,-202 906,-753 1130,-892 123,-76 163,-92 274,-111 50,-9 166,-41 257,-70 154,-51 321,-95 356,-95 24,0 11,42 -42,133 -25,44 -44,81 -41,83 2,2 41,-10 86,-26 73,-27 231,-53 231,-38 0,36 -76,163 -131,217 -19,19 -97,58 -226,112 -315,131 -403,180 -371,206 20,16 77,32 158,43 127,18 140,21 140,30 0,10 -55,27 -300,94 -184,49 -361,111 -555,194 -176,74 -570,261 -624,296 -41,26 -43,29 -25,39 38,22 219,10 374,-23 80,-17 197,-42 260,-56 193,-40 349,-29 321,24 -5,10 -41,35 -80,57 -39,22 -71,43 -71,47 0,29 280,47 726,48 261,0 358,6 349,20 -9,15 -140,59 -205,69 -35,6 -154,15 -265,21 -407,21 -559,36 -608,62 -30,15 -11,25 70,36 126,18 179,21 574,42 208,11 398,24 424,29 88,17 85,48 -7,62 -29,5 -179,20 -333,34 -403,37 -529,55 -508,76 5,5 53,16 108,24 88,13 202,22 738,55 87,5 167,14 177,20 42,23 17,71 -48,91 -65,20 -409,23 -567,4 -162,-19 -667,-32 -704,-18 -29,11 49,34 459,133 297,71 461,122 498,156 l 27,24 -24,20 c -32,27 -89,26 -211,-5 -315,-80 -1380,-201 -1380,-157 0,17 77,36 340,87 407,79 690,151 690,176 0,16 -95,10 -455,-26 -462,-46 -765,-60 -765,-35 0,14 117,60 367,144 271,92 419,150 490,192 59,34 113,92 113,121 0,48 -86,43 -331,-18 -142,-35 -249,-49 -249,-34 0,4 7,19 14,34 10,19 31,34 63,46 190,71 464,205 546,268 56,42 98,101 90,125 -9,23 -79,12 -338,-53 -143,-36 -263,-64 -268,-62 -4,1 90,54 210,116 405,212 526,284 594,352 44,44 48,63 17,80 -36,20 -127,4 -241,-42 -59,-23 -110,-39 -113,-36 -13,13 27,57 148,166 68,60 154,146 192,190 38,44 77,83 87,86 20,7 44,43 35,52 -8,8 -96,-36 -396,-199 -327,-178 -390,-211 -390,-202 0,11 42,67 155,204 128,156 195,248 195,267 0,23 -43,14 -90,-19 z"
           id="path936"
           style="fill:#ffa207;fill-opacity:1;stroke:none" />
        <path
           d="m 5244,9376 c -3,-9 4,-39 16,-67 12,-28 28,-81 36,-118 20,-93 39,-438 30,-544 -7,-82 -9,-88 -29,-85 -24,3 -149,148 -199,230 -10,15 -22,28 -28,28 -25,0 -3,-62 78,-222 202,-398 255,-621 184,-772 -16,-34 -46,-78 -67,-98 -33,-33 -44,-38 -86,-38 -50,0 -177,31 -324,79 l -89,29 -17,-36 c -9,-21 -26,-46 -39,-57 -55,-48 -80,-96 -80,-152 0,-140 180,-824 231,-878 19,-19 19,-18 19,46 0,36 -11,162 -25,279 -25,206 -30,320 -11,275 44,-109 75,-204 132,-400 96,-331 130,-423 172,-465 19,-19 45,-51 58,-72 38,-60 44,-56 44,25 0,47 -27,223 -75,496 -41,232 -75,434 -75,448 0,48 17,11 43,-97 48,-194 187,-611 234,-702 25,-49 49,-88 54,-88 5,0 9,54 9,120 0,107 -6,148 -60,405 -34,162 -59,308 -59,338 1,29 4,43 6,33 3,-11 61,-179 130,-375 69,-196 135,-383 145,-416 11,-33 27,-77 36,-98 15,-36 16,-37 33,-20 24,25 59,150 59,212 0,29 -25,159 -55,290 -30,130 -62,281 -70,335 -20,136 -46,506 -35,506 7,0 38,-119 125,-480 161,-667 182,-739 250,-835 20,-27 50,-72 68,-100 l 32,-50 3,63 c 2,40 -7,112 -23,193 -15,72 -24,133 -22,136 10,9 86,-111 151,-237 35,-69 76,-136 90,-149 l 26,-24 v 45 c 0,86 -40,283 -122,593 -116,445 -188,644 -343,955 -29,58 -78,162 -109,232 -54,122 -56,131 -55,210 v 83 l 51,-100 c 28,-55 112,-226 186,-380 301,-626 383,-840 492,-1276 61,-244 97,-353 128,-390 29,-36 47,-36 68,-4 35,54 -4,245 -140,695 -129,427 -233,715 -348,970 -121,268 -211,513 -252,690 -8,35 -13,66 -11,68 10,10 75,-118 267,-523 115,-242 230,-475 256,-519 52,-87 101,-136 135,-136 54,1 70,42 57,147 -24,189 -71,292 -378,833 -300,528 -490,752 -747,881 -95,47 -152,60 -161,35 z"
           id="path938"
           style="fill:#ffa207;fill-opacity:1;stroke:none" />
        <path
           d="m 4233,7371 c -139,-104 -183,-162 -183,-240 0,-66 23,-117 85,-188 25,-28 45,-53 45,-55 0,-2 -19,-2 -43,0 -31,3 -49,-2 -67,-16 -23,-18 -25,-27 -23,-88 3,-94 34,-190 78,-241 19,-23 35,-43 35,-46 0,-2 -18,-7 -39,-11 -25,-4 -46,-15 -55,-28 -22,-31 -20,-106 4,-203 21,-82 41,-122 66,-132 23,-9 16,-21 -10,-16 -58,11 -91,-85 -84,-241 5,-99 24,-150 72,-195 35,-33 33,-41 -13,-41 -69,0 -91,-39 -91,-160 0,-128 15,-175 73,-237 l 50,-53 h -45 c -24,0 -52,-6 -62,-13 -27,-20 -35,-80 -25,-184 10,-112 24,-168 50,-204 25,-35 24,-39 -6,-39 -53,0 -74,-92 -56,-255 8,-68 19,-116 36,-151 14,-28 25,-53 25,-56 0,-3 -11,-9 -25,-12 -47,-12 -59,-46 -52,-149 7,-102 29,-187 59,-230 19,-26 19,-27 1,-33 -71,-21 -99,-63 -109,-161 -11,-100 -1,-128 73,-205 l 66,-68 h -66 c -97,0 -102,-10 -94,-188 4,-75 14,-168 22,-207 8,-38 15,-71 15,-73 0,-1 -11,-7 -24,-12 -34,-13 -46,-62 -46,-196 0,-153 4,-170 51,-197 47,-26 49,-37 9,-37 -46,0 -80,-21 -101,-62 -28,-55 -45,-227 -32,-322 10,-72 14,-79 67,-138 l 56,-63 -67,-11 c -54,-8 -71,-16 -93,-41 -40,-45 -52,-112 -40,-229 11,-108 14,-116 64,-163 20,-19 36,-43 36,-52 0,-16 -4,-15 -51,4 -45,19 -53,20 -76,7 -38,-22 -60,-55 -93,-145 -44,-116 -55,-192 -40,-268 45,-232 269,-318 606,-232 105,27 528,146 551,155 38,16 47,75 48,320 0,229 -6,304 -28,333 -10,15 -21,15 -80,6 -38,-6 -71,-8 -74,-5 -12,12 19,52 62,79 62,40 84,80 106,204 10,58 19,111 19,116 0,10 -172,3 -202,-8 -27,-11 -10,32 23,58 110,84 111,86 133,222 9,55 18,113 21,129 5,28 4,28 -32,23 -21,-4 -75,-9 -120,-13 -69,-6 -83,-4 -83,7 0,18 170,199 187,199 17,0 33,65 33,135 0,88 -3,90 -94,76 -42,-6 -83,-11 -91,-11 -31,0 -13,30 43,72 31,24 65,59 74,79 43,86 30,248 -22,301 -25,24 -36,28 -87,28 l -58,1 36,32 c 21,17 55,44 77,59 47,31 62,70 62,161 0,100 -23,132 -112,151 -38,9 -35,30 12,86 56,67 82,132 88,218 6,91 -16,155 -62,183 -17,10 -39,19 -49,19 -32,0 -30,28 7,71 45,54 60,120 61,271 0,103 -2,120 -21,145 -12,15 -31,29 -43,31 -11,2 -21,5 -21,7 0,1 13,27 28,57 32,60 57,191 48,243 -9,45 -29,58 -84,57 l -47,-2 57,53 c 31,28 64,67 73,86 26,52 30,129 11,214 -18,82 -46,127 -77,127 -18,0 -17,3 8,24 27,24 28,27 27,123 -1,106 -18,170 -56,210 -12,13 -30,23 -40,23 -23,0 -23,15 0,48 40,58 72,184 72,283 0,76 -12,98 -60,108 -38,8 -37,5 -20,91 17,81 24,605 10,715 -14,115 -42,198 -73,220 -44,31 -89,20 -174,-44 z"
           id="path940"
           style="fill:#ffa207;fill-opacity:1;stroke:none" />
        <path
           d="m 3035,1010 c -110,-12 -521,-77 -590,-95 -42,-10 -55,-20 -82,-58 -42,-60 -51,-95 -27,-103 11,-3 71,-27 134,-54 63,-27 140,-56 170,-64 95,-28 95,-24 -11,-133 -52,-54 -106,-114 -119,-133 -14,-19 -33,-44 -43,-55 -10,-11 -27,-35 -38,-54 l -20,-34 63,7 c 187,19 223,19 256,2 32,-17 53,-64 67,-154 14,-87 13,-85 50,-78 19,4 119,49 223,101 104,52 199,95 211,95 12,0 37,-16 57,-35 44,-45 71,-45 190,-3 104,37 114,35 206,-33 74,-56 115,-67 173,-45 25,10 73,37 108,59 56,38 68,42 123,42 64,0 73,-4 292,-120 91,-49 96,-50 193,-53 93,-4 111,1 90,23 -15,17 -100,215 -92,215 5,0 68,-9 142,-21 137,-21 216,-21 229,1 4,7 13,39 20,72 l 13,59 21,-20 c 30,-27 327,-211 342,-211 7,0 19,-3 27,-6 11,-4 19,12 32,70 20,91 37,108 100,99 52,-7 79,15 89,73 11,63 27,94 51,100 13,3 63,1 112,-5 48,-6 146,-11 218,-11 h 129 l -68,69 c -93,94 -236,163 -466,225 -331,89 -490,111 -750,103 -228,-7 -347,-29 -670,-127 -74,-22 -180,-52 -236,-66 -152,-40 -149,-42 -329,137 -124,125 -162,156 -221,186 -66,32 -80,35 -175,38 -57,2 -144,0 -194,-5 z"
           id="path942"
           style="fill:#ffa207;fill-opacity:1;stroke:none" />
      </g>
      <g
         transform="matrix(0.00119186,0,0,-0.00119186,130.45846,69.880184)"
         fill="#000000"
         stroke="none"
         id="g956"
         style="display:inline;fill:#ffa207;fill-opacity:1;stroke:none">
        <path
           d="m 5766,12773 c -25,-50 -73,-197 -141,-429 -82,-284 -115,-386 -127,-399 -17,-16 -2,189 31,430 34,241 40,373 17,343 -7,-10 -29,-25 -50,-33 -24,-10 -36,-22 -36,-35 0,-10 -5,-22 -10,-25 -22,-14 -101,-197 -263,-614 -13,-34 -28,-58 -31,-52 -4,6 -12,103 -19,216 -6,113 -15,205 -20,205 -4,0 -37,-30 -73,-67 -71,-76 -75,-84 -158,-373 -70,-246 -205,-872 -221,-1032 -5,-49 -10,-58 -26,-58 -10,0 -19,5 -19,12 0,7 -11,28 -23,47 -13,20 -45,74 -72,121 -90,161 -195,310 -277,396 -45,47 -91,90 -102,96 -28,15 -52,-18 -61,-82 -4,-27 -11,-50 -16,-50 -11,0 -46,68 -93,183 -44,106 -91,185 -211,352 -49,69 -103,144 -119,166 -16,23 -48,61 -72,86 l -44,45 v -69 c 0,-40 8,-95 20,-133 11,-36 22,-80 25,-97 4,-35 -10,-45 -19,-15 -4,10 -22,36 -41,58 -19,21 -35,42 -35,46 0,3 -38,52 -85,108 -47,56 -85,106 -85,111 0,5 -15,26 -34,46 -18,21 -35,47 -37,58 -3,14 -13,21 -37,23 -17,2 -32,1 -32,-1 0,-2 13,-48 30,-103 16,-54 30,-116 30,-137 v -39 l -60,62 c -33,34 -60,66 -60,71 0,5 -15,26 -33,46 -19,21 -51,66 -72,100 -21,35 -44,68 -51,74 -25,20 -16,-63 21,-213 20,-77 34,-148 32,-157 -5,-21 -173,147 -280,281 -61,76 -95,109 -160,151 -45,30 -92,57 -105,60 -22,5 -23,3 -16,-26 26,-122 61,-184 363,-642 167,-253 332,-500 366,-550 58,-85 127,-246 111,-262 -9,-9 -48,20 -85,63 -18,22 -136,179 -261,349 -149,201 -257,338 -309,390 l -81,80 v -57 c 0,-33 9,-80 21,-112 21,-57 315,-541 459,-756 122,-183 240,-344 401,-546 222,-280 241,-300 328,-344 78,-39 78,-41 6,-57 -78,-18 -104,2 -297,217 -96,107 -314,332 -485,499 -285,279 -317,307 -394,347 -46,24 -85,44 -86,44 -2,0 -3,-12 -3,-27 0,-33 39,-99 81,-138 18,-16 72,-84 120,-150 49,-66 101,-136 118,-155 83,-100 63,-131 -40,-62 -102,68 -318,195 -354,208 -16,6 -46,21 -65,33 -19,11 -43,21 -52,21 -20,0 -17,-10 36,-152 48,-130 47,-136 -14,-93 -59,41 -660,360 -910,482 -257,125 -515,226 -615,240 -25,3 -45,3 -45,-1 0,-4 13,-32 29,-64 40,-77 91,-124 256,-231 181,-116 200,-128 224,-136 12,-4 21,-15 21,-26 0,-19 -5,-20 -88,-13 -68,5 -152,26 -382,94 -162,49 -308,90 -324,92 l -30,3 3,-59 c 4,-98 6,-99 286,-210 176,-69 396,-134 518,-151 36,-6 47,-11 47,-25 0,-22 -12,-24 -385,-50 -367,-26 -379,-28 -418,-56 -18,-13 -42,-29 -54,-35 -13,-7 -23,-15 -23,-18 1,-3 47,-28 103,-54 l 102,-48 261,55 c 374,79 526,106 635,113 114,7 138,2 182,-37 19,-16 46,-34 61,-40 18,-7 26,-16 24,-28 -2,-13 -18,-19 -65,-24 -34,-4 -95,-16 -135,-27 -149,-42 -435,-140 -484,-166 l -51,-26 9,-62 c 4,-34 10,-73 13,-87 l 6,-25 157,12 c 275,22 348,39 672,156 109,40 174,59 280,84 18,4 -10,-30 -105,-126 -71,-71 -127,-132 -125,-134 18,-17 141,-27 319,-27 384,0 542,-23 780,-112 130,-48 409,-186 461,-228 l 25,-20 h -93 c -59,0 -103,5 -120,14 -48,24 -478,165 -584,192 -141,34 -296,41 -461,20 -72,-10 -265,-21 -445,-26 -345,-10 -424,-20 -637,-74 -180,-46 -352,-75 -760,-127 -268,-34 -335,-46 -359,-62 -16,-11 -45,-26 -65,-33 -29,-10 -37,-18 -39,-42 -3,-29 -2,-29 59,-36 136,-14 273,-8 699,29 102,9 250,15 330,13 l 145,-3 -60,-31 c -123,-65 -213,-76 -730,-89 -214,-6 -331,-14 -418,-31 -23,-5 -26,-8 -16,-21 7,-8 35,-26 63,-40 104,-53 108,-53 364,-43 339,14 467,26 653,60 90,17 184,30 209,30 l 45,-1 -55,-29 c -67,-35 -77,-38 -475,-143 -176,-47 -366,-99 -422,-117 -98,-31 -103,-34 -103,-60 0,-28 1,-28 73,-35 52,-5 106,-1 197,14 165,27 255,54 495,149 204,81 275,102 346,102 h 41 l -30,-25 c -17,-14 -32,-25 -35,-25 -3,0 -28,-16 -56,-35 -29,-19 -234,-127 -457,-241 -324,-165 -407,-211 -415,-231 -20,-52 -17,-53 135,-17 289,68 364,95 562,206 78,43 145,78 150,78 4,0 43,16 86,37 43,20 81,33 85,30 9,-10 -36,-56 -72,-74 -16,-8 -50,-34 -75,-58 -25,-23 -128,-108 -230,-187 l -185,-145 -18,-66 c -9,-36 -17,-88 -17,-116 0,-46 2,-50 18,-42 9,5 52,25 95,45 44,20 226,136 415,264 580,394 1014,682 1066,710 46,23 64,26 181,29 l 130,3 -45,-18 c -70,-27 -90,-39 -422,-264 C 1654,8656 1270,8377 1127,8241 947,8069 831,7860 790,7635 759,7462 729,7148 723,6945 l -6,-220 28,25 c 45,42 81,126 99,235 39,231 89,464 111,515 13,30 26,67 29,83 7,31 36,37 36,7 0,-11 -18,-187 -40,-391 -22,-204 -40,-399 -40,-432 v -61 l 55,54 c 68,67 69,71 180,525 47,193 89,359 94,370 18,37 12,-175 -8,-320 -37,-265 -37,-273 -2,-325 17,-25 31,-53 31,-64 0,-15 5,-17 28,-11 36,9 44,19 74,95 24,58 28,91 42,310 9,135 18,299 22,365 7,136 20,189 68,263 38,60 29,71 97,-104 23,-60 52,-121 65,-136 12,-16 26,-38 29,-49 9,-26 20,-12 35,41 11,40 40,364 40,445 0,51 1,54 38,74 90,48 163,83 167,79 3,-3 8,-80 12,-172 3,-91 9,-165 12,-164 3,2 35,18 69,37 83,45 107,87 173,296 27,88 56,173 62,189 l 13,28 39,-66 c 21,-37 54,-85 73,-107 34,-39 35,-40 55,-22 32,28 105,147 160,257 27,56 58,111 70,123 11,12 54,37 96,54 108,45 177,80 320,166 197,118 247,127 204,39 -35,-71 -156,-206 -423,-471 -274,-271 -350,-356 -350,-385 0,-32 42,-50 141,-61 109,-11 141,-22 133,-44 -9,-22 -146,-110 -328,-209 -258,-141 -336,-199 -336,-253 0,-32 33,-43 124,-43 121,0 123,-32 8,-127 -31,-27 -106,-80 -165,-118 -381,-248 -413,-272 -394,-291 7,-7 46,1 152,30 90,25 84,2 -35,-133 -39,-44 -104,-105 -145,-136 -82,-62 -95,-78 -95,-126 0,-31 0,-32 41,-26 72,10 251,125 444,287 66,55 90,64 80,28 -22,-71 -57,-132 -117,-201 -192,-223 -293,-433 -248,-517 14,-26 65,-42 98,-29 41,15 97,75 154,164 123,191 145,222 177,258 41,45 77,51 66,10 -3,-15 -41,-104 -84,-198 -98,-213 -121,-274 -124,-333 -2,-44 0,-47 24,-50 69,-8 155,117 449,653 208,378 303,538 358,598 56,59 65,26 50,-165 -9,-104 -9,-143 0,-163 24,-52 71,-23 163,101 62,84 163,256 338,573 89,162 169,304 177,315 13,19 14,18 14,-17 0,-131 -101,-429 -293,-867 -52,-118 -99,-231 -105,-250 -15,-44 -18,-92 -8,-108 10,-16 45,-15 76,3 39,22 69,19 80,-9 12,-32 0,-101 -44,-262 -60,-216 -80,-356 -56,-394 7,-12 12,-11 30,5 35,32 90,132 140,255 59,146 64,148 176,55 43,-36 86,-64 94,-63 41,8 104,308 195,928 36,245 69,454 72,465 4,15 12,-1 29,-55 13,-44 32,-82 45,-92 76,-63 244,47 373,242 75,114 123,153 221,177 59,14 77,14 218,-1 85,-9 168,-21 185,-27 45,-15 68,2 87,63 8,28 15,79 15,113 0,178 -151,526 -252,580 l -37,19 -60,-29 c -34,-16 -63,-36 -66,-44 -3,-9 -23,-27 -44,-41 -47,-29 -58,-48 -65,-119 -3,-31 -13,-62 -23,-73 -28,-31 -107,-67 -184,-85 -65,-14 -73,-14 -115,2 -77,29 -111,96 -140,273 -21,132 -33,179 -61,234 -31,63 -53,76 -154,90 -140,19 -139,19 -168,-31 -14,-24 -30,-44 -36,-45 -20,-2 -97,175 -82,190 2,2 17,0 33,-6 43,-17 69,-5 108,50 20,27 40,50 46,50 5,0 32,-20 59,-45 57,-50 94,-61 182,-51 117,12 128,-5 188,-293 44,-211 62,-254 104,-259 22,-3 33,6 69,55 24,32 67,105 97,161 29,56 71,122 93,146 32,38 48,47 96,57 77,16 123,40 193,105 32,30 64,54 71,54 6,0 33,-23 59,-51 30,-33 49,-47 54,-39 18,29 -38,259 -100,411 -25,61 -45,121 -45,134 0,67 79,74 310,30 233,-45 269,-36 194,47 -19,22 -34,45 -32,51 2,7 22,20 44,30 106,49 111,57 64,110 -30,35 -143,99 -233,132 -26,10 -59,29 -73,42 -23,21 -26,30 -22,76 5,66 48,134 173,277 343,393 518,706 650,1160 62,213 49,249 -42,120 -134,-190 -191,-255 -209,-238 -10,11 18,88 118,331 103,250 135,345 125,371 -6,15 -10,15 -34,2 -62,-32 -146,-141 -253,-326 -119,-206 -146,-232 -138,-132 6,68 48,176 263,668 86,195 158,368 162,384 9,50 -23,37 -96,-38 -61,-63 -93,-111 -197,-296 -57,-102 -69,-100 -60,10 4,49 13,145 21,214 28,250 21,350 -19,273 z"
           id="path946"
           style="fill:#ffa207;fill-opacity:1;stroke:none" />
        <path
           d="m 7840,11628 c -56,-39 -207,-168 -370,-317 -86,-78 -144,-123 -185,-142 -76,-35 -115,-45 -115,-29 0,28 33,66 220,255 133,134 201,210 206,229 7,29 6,29 -27,22 -19,-3 -56,-21 -84,-39 -27,-19 -68,-45 -90,-59 -22,-14 -116,-94 -209,-179 -221,-201 -601,-527 -746,-640 -200,-157 -344,-247 -560,-352 -113,-55 -216,-108 -230,-117 -14,-10 -36,-21 -50,-25 -14,-4 -33,-14 -43,-23 -17,-15 -16,-18 20,-54 43,-44 57,-46 223,-23 96,13 323,70 367,93 10,5 30,12 46,16 37,9 36,-13 -4,-76 -30,-47 -31,-49 -14,-74 9,-14 44,-39 78,-54 129,-62 248,-65 382,-10 44,18 107,34 140,37 57,5 59,4 43,-12 -9,-10 -32,-27 -51,-39 -20,-11 -70,-45 -113,-73 -43,-29 -94,-56 -113,-60 -37,-7 -142,7 -396,51 -202,36 -418,51 -506,36 -43,-7 -69,-16 -66,-23 2,-6 44,-35 93,-64 49,-28 104,-68 122,-87 42,-47 44,-110 5,-190 l -27,-55 27,-51 c 33,-64 33,-75 2,-112 -54,-64 -44,-88 237,-558 204,-340 349,-606 411,-750 76,-179 122,-375 162,-690 41,-319 68,-460 115,-600 27,-78 139,-321 186,-400 64,-110 147,-167 266,-185 l 47,-7 -24,88 c -30,113 -36,128 -198,494 -75,168 -141,325 -147,350 -6,25 -10,70 -8,100 l 3,55 52,-100 c 28,-55 117,-217 196,-360 120,-216 151,-263 179,-280 19,-11 51,-33 71,-50 56,-46 95,-75 101,-75 12,0 5,166 -8,218 -19,70 -52,131 -145,271 -155,233 -305,500 -321,573 -7,29 -10,69 -8,87 l 3,35 40,-65 c 21,-35 58,-89 81,-119 22,-30 92,-129 154,-220 145,-212 168,-240 190,-240 13,0 20,-9 22,-27 2,-19 10,-29 23,-31 11,-2 37,-20 58,-40 l 37,-36 v 70 c 0,39 -5,86 -12,105 -17,51 -228,424 -327,579 -48,74 -161,236 -251,360 -233,320 -588,867 -679,1048 -16,32 -36,64 -45,71 -14,12 -14,14 0,29 19,18 19,18 70,-81 63,-122 222,-323 373,-469 207,-202 906,-753 1130,-892 123,-76 163,-92 274,-111 50,-9 166,-41 257,-70 154,-51 321,-95 356,-95 24,0 11,42 -42,133 -25,44 -44,81 -41,83 2,2 41,-10 86,-26 73,-27 231,-53 231,-38 0,36 -76,163 -131,217 -19,19 -97,58 -226,112 -315,131 -403,180 -371,206 20,16 77,32 158,43 127,18 140,21 140,30 0,10 -55,27 -300,94 -184,49 -361,111 -555,194 -176,74 -570,261 -624,296 -41,26 -43,29 -25,39 38,22 219,10 374,-23 80,-17 197,-42 260,-56 193,-40 349,-29 321,24 -5,10 -41,35 -80,57 -39,22 -71,43 -71,47 0,29 280,47 726,48 261,0 358,6 349,20 -9,15 -140,59 -205,69 -35,6 -154,15 -265,21 -407,21 -559,36 -608,62 -30,15 -11,25 70,36 126,18 179,21 574,42 208,11 398,24 424,29 88,17 85,48 -7,62 -29,5 -179,20 -333,34 -403,37 -529,55 -508,76 5,5 53,16 108,24 88,13 202,22 738,55 87,5 167,14 177,20 42,23 17,71 -48,91 -65,20 -409,23 -567,4 -162,-19 -667,-32 -704,-18 -29,11 49,34 459,133 297,71 461,122 498,156 l 27,24 -24,20 c -32,27 -89,26 -211,-5 -315,-80 -1380,-201 -1380,-157 0,17 77,36 340,87 407,79 690,151 690,176 0,16 -95,10 -455,-26 -462,-46 -765,-60 -765,-35 0,14 117,60 367,144 271,92 419,150 490,192 59,34 113,92 113,121 0,48 -86,43 -331,-18 -142,-35 -249,-49 -249,-34 0,4 7,19 14,34 10,19 31,34 63,46 190,71 464,205 546,268 56,42 98,101 90,125 -9,23 -79,12 -338,-53 -143,-36 -263,-64 -268,-62 -4,1 90,54 210,116 405,212 526,284 594,352 44,44 48,63 17,80 -36,20 -127,4 -241,-42 -59,-23 -110,-39 -113,-36 -13,13 27,57 148,166 68,60 154,146 192,190 38,44 77,83 87,86 20,7 44,43 35,52 -8,8 -96,-36 -396,-199 -327,-178 -390,-211 -390,-202 0,11 42,67 155,204 128,156 195,248 195,267 0,23 -43,14 -90,-19 z"
           id="path948"
           style="fill:#ffa207;fill-opacity:1;stroke:none" />
        <path
           d="m 5244,9376 c -3,-9 4,-39 16,-67 12,-28 28,-81 36,-118 20,-93 39,-438 30,-544 -7,-82 -9,-88 -29,-85 -24,3 -149,148 -199,230 -10,15 -22,28 -28,28 -25,0 -3,-62 78,-222 202,-398 255,-621 184,-772 -16,-34 -46,-78 -67,-98 -33,-33 -44,-38 -86,-38 -50,0 -177,31 -324,79 l -89,29 -17,-36 c -9,-21 -26,-46 -39,-57 -55,-48 -80,-96 -80,-152 0,-140 180,-824 231,-878 19,-19 19,-18 19,46 0,36 -11,162 -25,279 -25,206 -30,320 -11,275 44,-109 75,-204 132,-400 96,-331 130,-423 172,-465 19,-19 45,-51 58,-72 38,-60 44,-56 44,25 0,47 -27,223 -75,496 -41,232 -75,434 -75,448 0,48 17,11 43,-97 48,-194 187,-611 234,-702 25,-49 49,-88 54,-88 5,0 9,54 9,120 0,107 -6,148 -60,405 -34,162 -59,308 -59,338 1,29 4,43 6,33 3,-11 61,-179 130,-375 69,-196 135,-383 145,-416 11,-33 27,-77 36,-98 15,-36 16,-37 33,-20 24,25 59,150 59,212 0,29 -25,159 -55,290 -30,130 -62,281 -70,335 -20,136 -46,506 -35,506 7,0 38,-119 125,-480 161,-667 182,-739 250,-835 20,-27 50,-72 68,-100 l 32,-50 3,63 c 2,40 -7,112 -23,193 -15,72 -24,133 -22,136 10,9 86,-111 151,-237 35,-69 76,-136 90,-149 l 26,-24 v 45 c 0,86 -40,283 -122,593 -116,445 -188,644 -343,955 -29,58 -78,162 -109,232 -54,122 -56,131 -55,210 v 83 l 51,-100 c 28,-55 112,-226 186,-380 301,-626 383,-840 492,-1276 61,-244 97,-353 128,-390 29,-36 47,-36 68,-4 35,54 -4,245 -140,695 -129,427 -233,715 -348,970 -121,268 -211,513 -252,690 -8,35 -13,66 -11,68 10,10 75,-118 267,-523 115,-242 230,-475 256,-519 52,-87 101,-136 135,-136 54,1 70,42 57,147 -24,189 -71,292 -378,833 -300,528 -490,752 -747,881 -95,47 -152,60 -161,35 z"
           id="path950"
           style="fill:#ffa207;fill-opacity:1;stroke:none" />
        <path
           d="m 4233,7371 c -139,-104 -183,-162 -183,-240 0,-66 23,-117 85,-188 25,-28 45,-53 45,-55 0,-2 -19,-2 -43,0 -31,3 -49,-2 -67,-16 -23,-18 -25,-27 -23,-88 3,-94 34,-190 78,-241 19,-23 35,-43 35,-46 0,-2 -18,-7 -39,-11 -25,-4 -46,-15 -55,-28 -22,-31 -20,-106 4,-203 21,-82 41,-122 66,-132 23,-9 16,-21 -10,-16 -58,11 -91,-85 -84,-241 5,-99 24,-150 72,-195 35,-33 33,-41 -13,-41 -69,0 -91,-39 -91,-160 0,-128 15,-175 73,-237 l 50,-53 h -45 c -24,0 -52,-6 -62,-13 -27,-20 -35,-80 -25,-184 10,-112 24,-168 50,-204 25,-35 24,-39 -6,-39 -53,0 -74,-92 -56,-255 8,-68 19,-116 36,-151 14,-28 25,-53 25,-56 0,-3 -11,-9 -25,-12 -47,-12 -59,-46 -52,-149 7,-102 29,-187 59,-230 19,-26 19,-27 1,-33 -71,-21 -99,-63 -109,-161 -11,-100 -1,-128 73,-205 l 66,-68 h -66 c -97,0 -102,-10 -94,-188 4,-75 14,-168 22,-207 8,-38 15,-71 15,-73 0,-1 -11,-7 -24,-12 -34,-13 -46,-62 -46,-196 0,-153 4,-170 51,-197 47,-26 49,-37 9,-37 -46,0 -80,-21 -101,-62 -28,-55 -45,-227 -32,-322 10,-72 14,-79 67,-138 l 56,-63 -67,-11 c -54,-8 -71,-16 -93,-41 -40,-45 -52,-112 -40,-229 11,-108 14,-116 64,-163 20,-19 36,-43 36,-52 0,-16 -4,-15 -51,4 -45,19 -53,20 -76,7 -38,-22 -60,-55 -93,-145 -44,-116 -55,-192 -40,-268 45,-232 269,-318 606,-232 105,27 528,146 551,155 38,16 47,75 48,320 0,229 -6,304 -28,333 -10,15 -21,15 -80,6 -38,-6 -71,-8 -74,-5 -12,12 19,52 62,79 62,40 84,80 106,204 10,58 19,111 19,116 0,10 -172,3 -202,-8 -27,-11 -10,32 23,58 110,84 111,86 133,222 9,55 18,113 21,129 5,28 4,28 -32,23 -21,-4 -75,-9 -120,-13 -69,-6 -83,-4 -83,7 0,18 170,199 187,199 17,0 33,65 33,135 0,88 -3,90 -94,76 -42,-6 -83,-11 -91,-11 -31,0 -13,30 43,72 31,24 65,59 74,79 43,86 30,248 -22,301 -25,24 -36,28 -87,28 l -58,1 36,32 c 21,17 55,44 77,59 47,31 62,70 62,161 0,100 -23,132 -112,151 -38,9 -35,30 12,86 56,67 82,132 88,218 6,91 -16,155 -62,183 -17,10 -39,19 -49,19 -32,0 -30,28 7,71 45,54 60,120 61,271 0,103 -2,120 -21,145 -12,15 -31,29 -43,31 -11,2 -21,5 -21,7 0,1 13,27 28,57 32,60 57,191 48,243 -9,45 -29,58 -84,57 l -47,-2 57,53 c 31,28 64,67 73,86 26,52 30,129 11,214 -18,82 -46,127 -77,127 -18,0 -17,3 8,24 27,24 28,27 27,123 -1,106 -18,170 -56,210 -12,13 -30,23 -40,23 -23,0 -23,15 0,48 40,58 72,184 72,283 0,76 -12,98 -60,108 -38,8 -37,5 -20,91 17,81 24,605 10,715 -14,115 -42,198 -73,220 -44,31 -89,20 -174,-44 z"
           id="path952"
           style="fill:#ffa207;fill-opacity:1;stroke:none" />
        <path
           d="m 3035,1010 c -110,-12 -521,-77 -590,-95 -42,-10 -55,-20 -82,-58 -42,-60 -51,-95 -27,-103 11,-3 71,-27 134,-54 63,-27 140,-56 170,-64 95,-28 95,-24 -11,-133 -52,-54 -106,-114 -119,-133 -14,-19 -33,-44 -43,-55 -10,-11 -27,-35 -38,-54 l -20,-34 63,7 c 187,19 223,19 256,2 32,-17 53,-64 67,-154 14,-87 13,-85 50,-78 19,4 119,49 223,101 104,52 199,95 211,95 12,0 37,-16 57,-35 44,-45 71,-45 190,-3 104,37 114,35 206,-33 74,-56 115,-67 173,-45 25,10 73,37 108,59 56,38 68,42 123,42 64,0 73,-4 292,-120 91,-49 96,-50 193,-53 93,-4 111,1 90,23 -15,17 -100,215 -92,215 5,0 68,-9 142,-21 137,-21 216,-21 229,1 4,7 13,39 20,72 l 13,59 21,-20 c 30,-27 327,-211 342,-211 7,0 19,-3 27,-6 11,-4 19,12 32,70 20,91 37,108 100,99 52,-7 79,15 89,73 11,63 27,94 51,100 13,3 63,1 112,-5 48,-6 146,-11 218,-11 h 129 l -68,69 c -93,94 -236,163 -466,225 -331,89 -490,111 -750,103 -228,-7 -347,-29 -670,-127 -74,-22 -180,-52 -236,-66 -152,-40 -149,-42 -329,137 -124,125 -162,156 -221,186 -66,32 -80,35 -175,38 -57,2 -144,0 -194,-5 z"
           id="path954"
           style="fill:#ffa207;fill-opacity:1;stroke:none" />
      </g>
      <g
         transform="matrix(0.00122045,0,0,-0.00122045,62.700722,79.506318)"
         fill="#000000"
         stroke="none"
         id="g968"
         style="display:inline;fill:#ffa207;fill-opacity:1;stroke:none">
        <path
           d="m 5766,12773 c -25,-50 -73,-197 -141,-429 -82,-284 -115,-386 -127,-399 -17,-16 -2,189 31,430 34,241 40,373 17,343 -7,-10 -29,-25 -50,-33 -24,-10 -36,-22 -36,-35 0,-10 -5,-22 -10,-25 -22,-14 -101,-197 -263,-614 -13,-34 -28,-58 -31,-52 -4,6 -12,103 -19,216 -6,113 -15,205 -20,205 -4,0 -37,-30 -73,-67 -71,-76 -75,-84 -158,-373 -70,-246 -205,-872 -221,-1032 -5,-49 -10,-58 -26,-58 -10,0 -19,5 -19,12 0,7 -11,28 -23,47 -13,20 -45,74 -72,121 -90,161 -195,310 -277,396 -45,47 -91,90 -102,96 -28,15 -52,-18 -61,-82 -4,-27 -11,-50 -16,-50 -11,0 -46,68 -93,183 -44,106 -91,185 -211,352 -49,69 -103,144 -119,166 -16,23 -48,61 -72,86 l -44,45 v -69 c 0,-40 8,-95 20,-133 11,-36 22,-80 25,-97 4,-35 -10,-45 -19,-15 -4,10 -22,36 -41,58 -19,21 -35,42 -35,46 0,3 -38,52 -85,108 -47,56 -85,106 -85,111 0,5 -15,26 -34,46 -18,21 -35,47 -37,58 -3,14 -13,21 -37,23 -17,2 -32,1 -32,-1 0,-2 13,-48 30,-103 16,-54 30,-116 30,-137 v -39 l -60,62 c -33,34 -60,66 -60,71 0,5 -15,26 -33,46 -19,21 -51,66 -72,100 -21,35 -44,68 -51,74 -25,20 -16,-63 21,-213 20,-77 34,-148 32,-157 -5,-21 -173,147 -280,281 -61,76 -95,109 -160,151 -45,30 -92,57 -105,60 -22,5 -23,3 -16,-26 26,-122 61,-184 363,-642 167,-253 332,-500 366,-550 58,-85 127,-246 111,-262 -9,-9 -48,20 -85,63 -18,22 -136,179 -261,349 -149,201 -257,338 -309,390 l -81,80 v -57 c 0,-33 9,-80 21,-112 21,-57 315,-541 459,-756 122,-183 240,-344 401,-546 222,-280 241,-300 328,-344 78,-39 78,-41 6,-57 -78,-18 -104,2 -297,217 -96,107 -314,332 -485,499 -285,279 -317,307 -394,347 -46,24 -85,44 -86,44 -2,0 -3,-12 -3,-27 0,-33 39,-99 81,-138 18,-16 72,-84 120,-150 49,-66 101,-136 118,-155 83,-100 63,-131 -40,-62 -102,68 -318,195 -354,208 -16,6 -46,21 -65,33 -19,11 -43,21 -52,21 -20,0 -17,-10 36,-152 48,-130 47,-136 -14,-93 -59,41 -660,360 -910,482 -257,125 -515,226 -615,240 -25,3 -45,3 -45,-1 0,-4 13,-32 29,-64 40,-77 91,-124 256,-231 181,-116 200,-128 224,-136 12,-4 21,-15 21,-26 0,-19 -5,-20 -88,-13 -68,5 -152,26 -382,94 -162,49 -308,90 -324,92 l -30,3 3,-59 c 4,-98 6,-99 286,-210 176,-69 396,-134 518,-151 36,-6 47,-11 47,-25 0,-22 -12,-24 -385,-50 -367,-26 -379,-28 -418,-56 -18,-13 -42,-29 -54,-35 -13,-7 -23,-15 -23,-18 1,-3 47,-28 103,-54 l 102,-48 261,55 c 374,79 526,106 635,113 114,7 138,2 182,-37 19,-16 46,-34 61,-40 18,-7 26,-16 24,-28 -2,-13 -18,-19 -65,-24 -34,-4 -95,-16 -135,-27 -149,-42 -435,-140 -484,-166 l -51,-26 9,-62 c 4,-34 10,-73 13,-87 l 6,-25 157,12 c 275,22 348,39 672,156 109,40 174,59 280,84 18,4 -10,-30 -105,-126 -71,-71 -127,-132 -125,-134 18,-17 141,-27 319,-27 384,0 542,-23 780,-112 130,-48 409,-186 461,-228 l 25,-20 h -93 c -59,0 -103,5 -120,14 -48,24 -478,165 -584,192 -141,34 -296,41 -461,20 -72,-10 -265,-21 -445,-26 -345,-10 -424,-20 -637,-74 -180,-46 -352,-75 -760,-127 -268,-34 -335,-46 -359,-62 -16,-11 -45,-26 -65,-33 -29,-10 -37,-18 -39,-42 -3,-29 -2,-29 59,-36 136,-14 273,-8 699,29 102,9 250,15 330,13 l 145,-3 -60,-31 c -123,-65 -213,-76 -730,-89 -214,-6 -331,-14 -418,-31 -23,-5 -26,-8 -16,-21 7,-8 35,-26 63,-40 104,-53 108,-53 364,-43 339,14 467,26 653,60 90,17 184,30 209,30 l 45,-1 -55,-29 c -67,-35 -77,-38 -475,-143 -176,-47 -366,-99 -422,-117 -98,-31 -103,-34 -103,-60 0,-28 1,-28 73,-35 52,-5 106,-1 197,14 165,27 255,54 495,149 204,81 275,102 346,102 h 41 l -30,-25 c -17,-14 -32,-25 -35,-25 -3,0 -28,-16 -56,-35 -29,-19 -234,-127 -457,-241 -324,-165 -407,-211 -415,-231 -20,-52 -17,-53 135,-17 289,68 364,95 562,206 78,43 145,78 150,78 4,0 43,16 86,37 43,20 81,33 85,30 9,-10 -36,-56 -72,-74 -16,-8 -50,-34 -75,-58 -25,-23 -128,-108 -230,-187 l -185,-145 -18,-66 c -9,-36 -17,-88 -17,-116 0,-46 2,-50 18,-42 9,5 52,25 95,45 44,20 226,136 415,264 580,394 1014,682 1066,710 46,23 64,26 181,29 l 130,3 -45,-18 c -70,-27 -90,-39 -422,-264 C 1654,8656 1270,8377 1127,8241 947,8069 831,7860 790,7635 759,7462 729,7148 723,6945 l -6,-220 28,25 c 45,42 81,126 99,235 39,231 89,464 111,515 13,30 26,67 29,83 7,31 36,37 36,7 0,-11 -18,-187 -40,-391 -22,-204 -40,-399 -40,-432 v -61 l 55,54 c 68,67 69,71 180,525 47,193 89,359 94,370 18,37 12,-175 -8,-320 -37,-265 -37,-273 -2,-325 17,-25 31,-53 31,-64 0,-15 5,-17 28,-11 36,9 44,19 74,95 24,58 28,91 42,310 9,135 18,299 22,365 7,136 20,189 68,263 38,60 29,71 97,-104 23,-60 52,-121 65,-136 12,-16 26,-38 29,-49 9,-26 20,-12 35,41 11,40 40,364 40,445 0,51 1,54 38,74 90,48 163,83 167,79 3,-3 8,-80 12,-172 3,-91 9,-165 12,-164 3,2 35,18 69,37 83,45 107,87 173,296 27,88 56,173 62,189 l 13,28 39,-66 c 21,-37 54,-85 73,-107 34,-39 35,-40 55,-22 32,28 105,147 160,257 27,56 58,111 70,123 11,12 54,37 96,54 108,45 177,80 320,166 197,118 247,127 204,39 -35,-71 -156,-206 -423,-471 -274,-271 -350,-356 -350,-385 0,-32 42,-50 141,-61 109,-11 141,-22 133,-44 -9,-22 -146,-110 -328,-209 -258,-141 -336,-199 -336,-253 0,-32 33,-43 124,-43 121,0 123,-32 8,-127 -31,-27 -106,-80 -165,-118 -381,-248 -413,-272 -394,-291 7,-7 46,1 152,30 90,25 84,2 -35,-133 -39,-44 -104,-105 -145,-136 -82,-62 -95,-78 -95,-126 0,-31 0,-32 41,-26 72,10 251,125 444,287 66,55 90,64 80,28 -22,-71 -57,-132 -117,-201 -192,-223 -293,-433 -248,-517 14,-26 65,-42 98,-29 41,15 97,75 154,164 123,191 145,222 177,258 41,45 77,51 66,10 -3,-15 -41,-104 -84,-198 -98,-213 -121,-274 -124,-333 -2,-44 0,-47 24,-50 69,-8 155,117 449,653 208,378 303,538 358,598 56,59 65,26 50,-165 -9,-104 -9,-143 0,-163 24,-52 71,-23 163,101 62,84 163,256 338,573 89,162 169,304 177,315 13,19 14,18 14,-17 0,-131 -101,-429 -293,-867 -52,-118 -99,-231 -105,-250 -15,-44 -18,-92 -8,-108 10,-16 45,-15 76,3 39,22 69,19 80,-9 12,-32 0,-101 -44,-262 -60,-216 -80,-356 -56,-394 7,-12 12,-11 30,5 35,32 90,132 140,255 59,146 64,148 176,55 43,-36 86,-64 94,-63 41,8 104,308 195,928 36,245 69,454 72,465 4,15 12,-1 29,-55 13,-44 32,-82 45,-92 76,-63 244,47 373,242 75,114 123,153 221,177 59,14 77,14 218,-1 85,-9 168,-21 185,-27 45,-15 68,2 87,63 8,28 15,79 15,113 0,178 -151,526 -252,580 l -37,19 -60,-29 c -34,-16 -63,-36 -66,-44 -3,-9 -23,-27 -44,-41 -47,-29 -58,-48 -65,-119 -3,-31 -13,-62 -23,-73 -28,-31 -107,-67 -184,-85 -65,-14 -73,-14 -115,2 -77,29 -111,96 -140,273 -21,132 -33,179 -61,234 -31,63 -53,76 -154,90 -140,19 -139,19 -168,-31 -14,-24 -30,-44 -36,-45 -20,-2 -97,175 -82,190 2,2 17,0 33,-6 43,-17 69,-5 108,50 20,27 40,50 46,50 5,0 32,-20 59,-45 57,-50 94,-61 182,-51 117,12 128,-5 188,-293 44,-211 62,-254 104,-259 22,-3 33,6 69,55 24,32 67,105 97,161 29,56 71,122 93,146 32,38 48,47 96,57 77,16 123,40 193,105 32,30 64,54 71,54 6,0 33,-23 59,-51 30,-33 49,-47 54,-39 18,29 -38,259 -100,411 -25,61 -45,121 -45,134 0,67 79,74 310,30 233,-45 269,-36 194,47 -19,22 -34,45 -32,51 2,7 22,20 44,30 106,49 111,57 64,110 -30,35 -143,99 -233,132 -26,10 -59,29 -73,42 -23,21 -26,30 -22,76 5,66 48,134 173,277 343,393 518,706 650,1160 62,213 49,249 -42,120 -134,-190 -191,-255 -209,-238 -10,11 18,88 118,331 103,250 135,345 125,371 -6,15 -10,15 -34,2 -62,-32 -146,-141 -253,-326 -119,-206 -146,-232 -138,-132 6,68 48,176 263,668 86,195 158,368 162,384 9,50 -23,37 -96,-38 -61,-63 -93,-111 -197,-296 -57,-102 -69,-100 -60,10 4,49 13,145 21,214 28,250 21,350 -19,273 z"
           id="path958"
           style="fill:#ffa207;fill-opacity:1;stroke:none" />
        <path
           d="m 7840,11628 c -56,-39 -207,-168 -370,-317 -86,-78 -144,-123 -185,-142 -76,-35 -115,-45 -115,-29 0,28 33,66 220,255 133,134 201,210 206,229 7,29 6,29 -27,22 -19,-3 -56,-21 -84,-39 -27,-19 -68,-45 -90,-59 -22,-14 -116,-94 -209,-179 -221,-201 -601,-527 -746,-640 -200,-157 -344,-247 -560,-352 -113,-55 -216,-108 -230,-117 -14,-10 -36,-21 -50,-25 -14,-4 -33,-14 -43,-23 -17,-15 -16,-18 20,-54 43,-44 57,-46 223,-23 96,13 323,70 367,93 10,5 30,12 46,16 37,9 36,-13 -4,-76 -30,-47 -31,-49 -14,-74 9,-14 44,-39 78,-54 129,-62 248,-65 382,-10 44,18 107,34 140,37 57,5 59,4 43,-12 -9,-10 -32,-27 -51,-39 -20,-11 -70,-45 -113,-73 -43,-29 -94,-56 -113,-60 -37,-7 -142,7 -396,51 -202,36 -418,51 -506,36 -43,-7 -69,-16 -66,-23 2,-6 44,-35 93,-64 49,-28 104,-68 122,-87 42,-47 44,-110 5,-190 l -27,-55 27,-51 c 33,-64 33,-75 2,-112 -54,-64 -44,-88 237,-558 204,-340 349,-606 411,-750 76,-179 122,-375 162,-690 41,-319 68,-460 115,-600 27,-78 139,-321 186,-400 64,-110 147,-167 266,-185 l 47,-7 -24,88 c -30,113 -36,128 -198,494 -75,168 -141,325 -147,350 -6,25 -10,70 -8,100 l 3,55 52,-100 c 28,-55 117,-217 196,-360 120,-216 151,-263 179,-280 19,-11 51,-33 71,-50 56,-46 95,-75 101,-75 12,0 5,166 -8,218 -19,70 -52,131 -145,271 -155,233 -305,500 -321,573 -7,29 -10,69 -8,87 l 3,35 40,-65 c 21,-35 58,-89 81,-119 22,-30 92,-129 154,-220 145,-212 168,-240 190,-240 13,0 20,-9 22,-27 2,-19 10,-29 23,-31 11,-2 37,-20 58,-40 l 37,-36 v 70 c 0,39 -5,86 -12,105 -17,51 -228,424 -327,579 -48,74 -161,236 -251,360 -233,320 -588,867 -679,1048 -16,32 -36,64 -45,71 -14,12 -14,14 0,29 19,18 19,18 70,-81 63,-122 222,-323 373,-469 207,-202 906,-753 1130,-892 123,-76 163,-92 274,-111 50,-9 166,-41 257,-70 154,-51 321,-95 356,-95 24,0 11,42 -42,133 -25,44 -44,81 -41,83 2,2 41,-10 86,-26 73,-27 231,-53 231,-38 0,36 -76,163 -131,217 -19,19 -97,58 -226,112 -315,131 -403,180 -371,206 20,16 77,32 158,43 127,18 140,21 140,30 0,10 -55,27 -300,94 -184,49 -361,111 -555,194 -176,74 -570,261 -624,296 -41,26 -43,29 -25,39 38,22 219,10 374,-23 80,-17 197,-42 260,-56 193,-40 349,-29 321,24 -5,10 -41,35 -80,57 -39,22 -71,43 -71,47 0,29 280,47 726,48 261,0 358,6 349,20 -9,15 -140,59 -205,69 -35,6 -154,15 -265,21 -407,21 -559,36 -608,62 -30,15 -11,25 70,36 126,18 179,21 574,42 208,11 398,24 424,29 88,17 85,48 -7,62 -29,5 -179,20 -333,34 -403,37 -529,55 -508,76 5,5 53,16 108,24 88,13 202,22 738,55 87,5 167,14 177,20 42,23 17,71 -48,91 -65,20 -409,23 -567,4 -162,-19 -667,-32 -704,-18 -29,11 49,34 459,133 297,71 461,122 498,156 l 27,24 -24,20 c -32,27 -89,26 -211,-5 -315,-80 -1380,-201 -1380,-157 0,17 77,36 340,87 407,79 690,151 690,176 0,16 -95,10 -455,-26 -462,-46 -765,-60 -765,-35 0,14 117,60 367,144 271,92 419,150 490,192 59,34 113,92 113,121 0,48 -86,43 -331,-18 -142,-35 -249,-49 -249,-34 0,4 7,19 14,34 10,19 31,34 63,46 190,71 464,205 546,268 56,42 98,101 90,125 -9,23 -79,12 -338,-53 -143,-36 -263,-64 -268,-62 -4,1 90,54 210,116 405,212 526,284 594,352 44,44 48,63 17,80 -36,20 -127,4 -241,-42 -59,-23 -110,-39 -113,-36 -13,13 27,57 148,166 68,60 154,146 192,190 38,44 77,83 87,86 20,7 44,43 35,52 -8,8 -96,-36 -396,-199 -327,-178 -390,-211 -390,-202 0,11 42,67 155,204 128,156 195,248 195,267 0,23 -43,14 -90,-19 z"
           id="path960"
           style="fill:#ffa207;fill-opacity:1;stroke:none" />
        <path
           d="m 5244,9376 c -3,-9 4,-39 16,-67 12,-28 28,-81 36,-118 20,-93 39,-438 30,-544 -7,-82 -9,-88 -29,-85 -24,3 -149,148 -199,230 -10,15 -22,28 -28,28 -25,0 -3,-62 78,-222 202,-398 255,-621 184,-772 -16,-34 -46,-78 -67,-98 -33,-33 -44,-38 -86,-38 -50,0 -177,31 -324,79 l -89,29 -17,-36 c -9,-21 -26,-46 -39,-57 -55,-48 -80,-96 -80,-152 0,-140 180,-824 231,-878 19,-19 19,-18 19,46 0,36 -11,162 -25,279 -25,206 -30,320 -11,275 44,-109 75,-204 132,-400 96,-331 130,-423 172,-465 19,-19 45,-51 58,-72 38,-60 44,-56 44,25 0,47 -27,223 -75,496 -41,232 -75,434 -75,448 0,48 17,11 43,-97 48,-194 187,-611 234,-702 25,-49 49,-88 54,-88 5,0 9,54 9,120 0,107 -6,148 -60,405 -34,162 -59,308 -59,338 1,29 4,43 6,33 3,-11 61,-179 130,-375 69,-196 135,-383 145,-416 11,-33 27,-77 36,-98 15,-36 16,-37 33,-20 24,25 59,150 59,212 0,29 -25,159 -55,290 -30,130 -62,281 -70,335 -20,136 -46,506 -35,506 7,0 38,-119 125,-480 161,-667 182,-739 250,-835 20,-27 50,-72 68,-100 l 32,-50 3,63 c 2,40 -7,112 -23,193 -15,72 -24,133 -22,136 10,9 86,-111 151,-237 35,-69 76,-136 90,-149 l 26,-24 v 45 c 0,86 -40,283 -122,593 -116,445 -188,644 -343,955 -29,58 -78,162 -109,232 -54,122 -56,131 -55,210 v 83 l 51,-100 c 28,-55 112,-226 186,-380 301,-626 383,-840 492,-1276 61,-244 97,-353 128,-390 29,-36 47,-36 68,-4 35,54 -4,245 -140,695 -129,427 -233,715 -348,970 -121,268 -211,513 -252,690 -8,35 -13,66 -11,68 10,10 75,-118 267,-523 115,-242 230,-475 256,-519 52,-87 101,-136 135,-136 54,1 70,42 57,147 -24,189 -71,292 -378,833 -300,528 -490,752 -747,881 -95,47 -152,60 -161,35 z"
           id="path962"
           style="fill:#ffa207;fill-opacity:1;stroke:none" />
        <path
           d="m 4233,7371 c -139,-104 -183,-162 -183,-240 0,-66 23,-117 85,-188 25,-28 45,-53 45,-55 0,-2 -19,-2 -43,0 -31,3 -49,-2 -67,-16 -23,-18 -25,-27 -23,-88 3,-94 34,-190 78,-241 19,-23 35,-43 35,-46 0,-2 -18,-7 -39,-11 -25,-4 -46,-15 -55,-28 -22,-31 -20,-106 4,-203 21,-82 41,-122 66,-132 23,-9 16,-21 -10,-16 -58,11 -91,-85 -84,-241 5,-99 24,-150 72,-195 35,-33 33,-41 -13,-41 -69,0 -91,-39 -91,-160 0,-128 15,-175 73,-237 l 50,-53 h -45 c -24,0 -52,-6 -62,-13 -27,-20 -35,-80 -25,-184 10,-112 24,-168 50,-204 25,-35 24,-39 -6,-39 -53,0 -74,-92 -56,-255 8,-68 19,-116 36,-151 14,-28 25,-53 25,-56 0,-3 -11,-9 -25,-12 -47,-12 -59,-46 -52,-149 7,-102 29,-187 59,-230 19,-26 19,-27 1,-33 -71,-21 -99,-63 -109,-161 -11,-100 -1,-128 73,-205 l 66,-68 h -66 c -97,0 -102,-10 -94,-188 4,-75 14,-168 22,-207 8,-38 15,-71 15,-73 0,-1 -11,-7 -24,-12 -34,-13 -46,-62 -46,-196 0,-153 4,-170 51,-197 47,-26 49,-37 9,-37 -46,0 -80,-21 -101,-62 -28,-55 -45,-227 -32,-322 10,-72 14,-79 67,-138 l 56,-63 -67,-11 c -54,-8 -71,-16 -93,-41 -40,-45 -52,-112 -40,-229 11,-108 14,-116 64,-163 20,-19 36,-43 36,-52 0,-16 -4,-15 -51,4 -45,19 -53,20 -76,7 -38,-22 -60,-55 -93,-145 -44,-116 -55,-192 -40,-268 45,-232 269,-318 606,-232 105,27 528,146 551,155 38,16 47,75 48,320 0,229 -6,304 -28,333 -10,15 -21,15 -80,6 -38,-6 -71,-8 -74,-5 -12,12 19,52 62,79 62,40 84,80 106,204 10,58 19,111 19,116 0,10 -172,3 -202,-8 -27,-11 -10,32 23,58 110,84 111,86 133,222 9,55 18,113 21,129 5,28 4,28 -32,23 -21,-4 -75,-9 -120,-13 -69,-6 -83,-4 -83,7 0,18 170,199 187,199 17,0 33,65 33,135 0,88 -3,90 -94,76 -42,-6 -83,-11 -91,-11 -31,0 -13,30 43,72 31,24 65,59 74,79 43,86 30,248 -22,301 -25,24 -36,28 -87,28 l -58,1 36,32 c 21,17 55,44 77,59 47,31 62,70 62,161 0,100 -23,132 -112,151 -38,9 -35,30 12,86 56,67 82,132 88,218 6,91 -16,155 -62,183 -17,10 -39,19 -49,19 -32,0 -30,28 7,71 45,54 60,120 61,271 0,103 -2,120 -21,145 -12,15 -31,29 -43,31 -11,2 -21,5 -21,7 0,1 13,27 28,57 32,60 57,191 48,243 -9,45 -29,58 -84,57 l -47,-2 57,53 c 31,28 64,67 73,86 26,52 30,129 11,214 -18,82 -46,127 -77,127 -18,0 -17,3 8,24 27,24 28,27 27,123 -1,106 -18,170 -56,210 -12,13 -30,23 -40,23 -23,0 -23,15 0,48 40,58 72,184 72,283 0,76 -12,98 -60,108 -38,8 -37,5 -20,91 17,81 24,605 10,715 -14,115 -42,198 -73,220 -44,31 -89,20 -174,-44 z"
           id="path964"
           style="fill:#ffa207;fill-opacity:1;stroke:none" />
        <path
           d="m 3035,1010 c -110,-12 -521,-77 -590,-95 -42,-10 -55,-20 -82,-58 -42,-60 -51,-95 -27,-103 11,-3 71,-27 134,-54 63,-27 140,-56 170,-64 95,-28 95,-24 -11,-133 -52,-54 -106,-114 -119,-133 -14,-19 -33,-44 -43,-55 -10,-11 -27,-35 -38,-54 l -20,-34 63,7 c 187,19 223,19 256,2 32,-17 53,-64 67,-154 14,-87 13,-85 50,-78 19,4 119,49 223,101 104,52 199,95 211,95 12,0 37,-16 57,-35 44,-45 71,-45 190,-3 104,37 114,35 206,-33 74,-56 115,-67 173,-45 25,10 73,37 108,59 56,38 68,42 123,42 64,0 73,-4 292,-120 91,-49 96,-50 193,-53 93,-4 111,1 90,23 -15,17 -100,215 -92,215 5,0 68,-9 142,-21 137,-21 216,-21 229,1 4,7 13,39 20,72 l 13,59 21,-20 c 30,-27 327,-211 342,-211 7,0 19,-3 27,-6 11,-4 19,12 32,70 20,91 37,108 100,99 52,-7 79,15 89,73 11,63 27,94 51,100 13,3 63,1 112,-5 48,-6 146,-11 218,-11 h 129 l -68,69 c -93,94 -236,163 -466,225 -331,89 -490,111 -750,103 -228,-7 -347,-29 -670,-127 -74,-22 -180,-52 -236,-66 -152,-40 -149,-42 -329,137 -124,125 -162,156 -221,186 -66,32 -80,35 -175,38 -57,2 -144,0 -194,-5 z"
           id="path966"
           style="fill:#ffa207;fill-opacity:1;stroke:none" />
      </g>
      <path
         id="path1091"
         style="opacity:1;fill:#ffa207;fill-opacity:1;stroke:none;stroke-width:0.189386;stroke-miterlimit:4;stroke-dasharray:none"
         d="m 54.179264,71.393958 v 4.13817 h -1.957259 v 4.371892 h 1.957259 4.104851 2.253214 v -4.371892 h -2.253214 v -4.13817 z" />
      <path
         id="path1093"
         style="opacity:1;fill:#ffa207;fill-opacity:1;stroke:none;stroke-width:0.154951;stroke-miterlimit:4;stroke-dasharray:none"
         d="m 126.36701,59.537498 v 3.385762 h -1.60138 v 3.576987 h 1.60138 3.3585 1.84353 V 62.92326 h -1.84353 v -3.385762 z" />
      <rect
         style="fill:#ececec;fill-opacity:0.0685484;stroke:none;stroke-width:0.263;stroke-miterlimit:4;stroke-dasharray:none"
         id="rect962"
         width="9.6383924"
         height="12.473214"
         x="22.678572"
         y="12.095239" />
      <rect
         style="fill:#ececec;fill-opacity:0.0685484;stroke:none;stroke-width:0.263;stroke-miterlimit:4;stroke-dasharray:none"
         id="rect964"
         width="7.7485118"
         height="0.56696242"
         x="31.75"
         y="20.221727" />
      <path
         id="path1034"
         style="opacity:0.332258;fill:#ffffff;fill-opacity:0.596774;stroke:none;stroke-width:0.203259;stroke-miterlimit:4;stroke-dasharray:none"
         d="m 16.490908,3.4819012 a 7.9602092,5.4772089 0 0 0 -7.9604374,5.4770945 7.9602092,5.4772089 0 0 0 7.9604374,5.4770953 7.9602092,5.4772089 0 0 0 7.137715,-3.053259 7.3759749,3.1402662 0 0 0 7.32183,2.761312 A 7.3759749,3.1402662 0 0 0 38.09456,11.785007 7.9938998,3.5162536 0 0 0 45.19154,8.2908334 7.9938998,3.5162536 0 0 0 37.197554,4.7746937 7.9938998,3.5162536 0 0 0 35.480221,4.8565665 6.3535618,1.2415005 0 0 0 31.972865,4.6504866 6.3535618,1.2415005 0 0 0 29.203568,4.7746937 9.8589762,3.7245017 0 0 0 22.479209,3.7738478 9.8589762,3.7245017 0 0 0 19.647606,3.930804 7.9602092,5.4772089 0 0 0 16.490908,3.4819012 Z" />
      <path
         id="path1049"
         style="opacity:0.332258;fill:#ffffff;fill-opacity:0.596774;stroke:none;stroke-width:0.112979;stroke-miterlimit:4;stroke-dasharray:none"
         d="m 71.556727,3.45777 a 4.4245918,3.0444443 0 0 0 -4.424719,3.044381 4.4245918,3.0444443 0 0 0 4.424719,3.044381 4.4245918,3.0444443 0 0 0 3.967417,-1.697119 4.0998518,1.7454813 0 0 0 4.069757,1.534843 4.0998518,1.7454813 0 0 0 3.97097,-1.311299 A 4.4433184,1.9544696 0 0 0 87.509647,6.13076 4.4433184,1.9544696 0 0 0 83.06628,4.176354 4.4433184,1.9544696 0 0 0 82.11172,4.221864 3.5315551,0.69007396 0 0 0 80.162196,4.107317 3.5315551,0.69007396 0 0 0 78.622914,4.176357 5.4799999,2.0702219 0 0 0 74.885256,3.620048 5.4799999,2.0702219 0 0 0 73.311341,3.707288 4.4245918,3.0444443 0 0 0 71.556727,3.457772 Z" />
      <path
         id="path1051"
         style="opacity:0.332258;fill:#ffffff;fill-opacity:0.596774;stroke:none;stroke-width:0.257576;stroke-miterlimit:4;stroke-dasharray:none"
         d="m 150.16913,4.8530814 a 10.087413,6.9408814 0 0 0 -10.08771,6.9407366 10.087413,6.9408814 0 0 0 10.08771,6.940736 10.087413,6.9408814 0 0 0 9.0451,-3.869179 9.347054,3.9794384 0 0 0 9.27844,3.499216 9.347054,3.9794384 0 0 0 9.05323,-2.989568 10.130107,4.4559008 0 0 0 8.99351,-4.427921 10.130107,4.4559008 0 0 0 -10.13021,-4.455757 10.130107,4.4559008 0 0 0 -2.17626,0.1037497 8.0514218,1.5732663 0 0 0 -4.44463,-0.2611512 8.0514218,1.5732663 0 0 0 -3.50934,0.1574114 12.493587,4.719799 0 0 0 -8.5213,-1.2683022 12.493587,4.719799 0 0 0 -3.5883,0.1988994 10.087413,6.9408814 0 0 0 -4.00024,-0.5688608 z" />
      <path
         id="path1053"
         style="opacity:0.332258;fill:#ffffff;fill-opacity:0.596774;stroke:none;stroke-width:0.12432;stroke-miterlimit:4;stroke-dasharray:none"
         d="m 196.84424,4.2861175 a 4.868713,3.3500323 0 0 0 -4.86886,3.349962 4.868713,3.3500323 0 0 0 4.86886,3.3499625 4.868713,3.3500323 0 0 0 4.36563,-1.8674685 4.511377,1.9206851 0 0 0 4.47826,1.6889055 4.511377,1.9206851 0 0 0 4.36956,-1.4429225 4.8893193,2.1506507 0 0 0 4.34074,-2.137147 4.8893193,2.1506507 0 0 0 -4.88936,-2.150581 4.8893193,2.1506507 0 0 0 -1.05038,0.05007 3.8860371,0.75934058 0 0 0 -2.14522,-0.126045 3.8860371,0.75934058 0 0 0 -1.69378,0.07597 6.0300583,2.2780218 0 0 0 -4.11283,-0.612149 6.0300583,2.2780218 0 0 0 -1.7319,0.096 4.868713,3.3500323 0 0 0 -1.93072,-0.274562 z" />
      <path
         id="path1055"
         style="opacity:0.332258;fill:#ffffff;fill-opacity:0.596774;stroke:none;stroke-width:0.110124;stroke-miterlimit:4;stroke-dasharray:none"
         d="m 136.90332,25.835313 a 4.3127654,2.9674996 0 0 0 -4.3129,2.967436 4.3127654,2.9674996 0 0 0 4.3129,2.967438 4.3127654,2.9674996 0 0 0 3.86712,-1.654226 3.9962329,1.7013663 0 0 0 3.9669,1.496053 3.9962329,1.7013663 0 0 0 3.87061,-1.278158 4.3310188,1.9050728 0 0 0 3.84508,-1.893112 4.3310188,1.9050728 0 0 0 -4.33106,-1.905011 4.3310188,1.9050728 0 0 0 -0.93043,0.04435 3.4422991,0.67263317 0 0 0 -1.90027,-0.111655 3.4422991,0.67263317 0 0 0 -1.50036,0.06729 5.3414994,2.0178996 0 0 0 -3.6432,-0.542249 5.3414994,2.0178996 0 0 0 -1.53414,0.08503 4.3127654,2.9674996 0 0 0 -1.71025,-0.243211 z" />
      <path
         id="path1057"
         style="opacity:0.332258;fill:#ffffff;fill-opacity:0.596774;stroke:none;stroke-width:0.129744;stroke-miterlimit:4;stroke-dasharray:none"
         d="m 59.551102,19.258994 a 5.0811509,3.4962052 0 0 0 -5.081297,3.496132 5.0811509,3.4962052 0 0 0 5.081297,3.496133 5.0811509,3.4962052 0 0 0 4.556136,-1.948952 4.7082231,2.0044909 0 0 0 4.673663,1.762596 4.7082231,2.0044909 0 0 0 4.560217,-1.505882 5.1026563,2.2444907 0 0 0 4.530136,-2.230396 5.1026563,2.2444907 0 0 0 -5.102713,-2.244418 5.1026563,2.2444907 0 0 0 -1.096205,0.05227 4.0555977,0.79247308 0 0 0 -2.238812,-0.131544 4.0555977,0.79247308 0 0 0 -1.767693,0.07929 6.2931695,2.3774193 0 0 0 -4.292284,-0.638858 6.2931695,2.3774193 0 0 0 -1.807466,0.100185 5.0811509,3.4962052 0 0 0 -2.014979,-0.286541 z" />
      <path
         d="m 147.13541,62.597693 c -0.23013,-0.04176 -0.30421,-0.04804 -0.41136,-0.03416 -0.0306,0.0046 -0.0732,0.01764 -0.0952,0.02993 l -0.0394,0.02222 0.0213,0.02737 c 0.0727,0.09328 -0.0256,0.246238 -0.30537,0.471966 -0.10902,0.08717 -0.32375,0.189333 -0.55444,0.262718 -0.1917,0.06127 -0.41507,0.103997 -0.63233,0.121746 l -0.10693,0.0088 -0.2158,0.159557 -0.21563,0.158743 -0.2462,0.299735 -0.24683,0.298751 -0.10408,0.388998 c -0.14159,0.526752 -0.39956,1.481502 -0.46666,1.727479 -0.0442,0.160995 -0.0642,0.220316 -0.10087,0.301555 -0.1057,0.231909 -0.23367,0.441332 -0.41448,0.676047 l -0.091,0.118073 0.0235,0.121874 c 0.0894,0.472156 0.10571,1.066155 0.0546,1.979785 l -0.005,0.09636 0.11284,0.04752 c 0.10037,0.04233 0.12517,0.04927 0.22338,0.06572 0.29785,0.0501 0.4468,0.05097 0.45706,0.0023 0.008,-0.03893 -0.0264,-0.108079 -0.0785,-0.158047 -0.0317,-0.03041 -0.13042,-0.09273 -0.19514,-0.123321 -0.0346,-0.0166 -0.0655,-0.03499 -0.0692,-0.04171 -0.005,-0.0069 -0.0308,-0.07512 -0.0589,-0.150527 -0.0493,-0.132395 -0.052,-0.143138 -0.0575,-0.253606 -0.0216,-0.396006 0.003,-0.70015 0.0765,-0.954021 0.11708,-0.406598 0.2495,-0.713366 0.40653,-0.943773 0.0286,-0.04313 0.0641,-0.09495 0.0777,-0.114953 0.0136,-0.02087 0.0384,-0.06139 0.0546,-0.09017 0.072,-0.128861 0.22304,-0.262252 0.37909,-0.335271 0.0706,-0.03342 0.25422,-0.289565 0.31134,-0.435967 l 0.0234,-0.05862 0.0152,0.05237 c 0.0921,0.322749 -0.037,0.810688 -0.39275,1.48556 l -0.065,0.123561 0.0426,0.07929 c 0.33452,0.623798 0.53463,1.258243 0.59271,1.88308 0.007,0.06835 0.011,0.128567 0.01,0.134249 -0.001,0.0057 0.008,0.02447 0.0183,0.04197 0.0538,0.07828 0.16782,0.124349 0.34668,0.140018 0.0641,0.005 0.15405,0.0087 0.1999,0.0083 0.0841,-9.04e-4 0.0849,-7.39e-4 0.0982,-0.02761 0.0412,-0.08283 0.004,-0.14581 -0.12941,-0.222155 l -0.0537,-0.0308 -0.17075,-0.468116 c -0.0974,-0.265401 -0.18169,-0.512782 -0.19573,-0.570814 -0.0284,-0.114443 -0.0537,-0.323976 -0.0628,-0.502121 -0.0106,-0.214909 -0.0108,-0.382715 -0.001,-0.428143 0.0122,-0.05505 0.0613,-0.153997 0.18602,-0.375967 0.16796,-0.298425 0.30095,-0.515263 0.32316,-0.524139 0.0463,-0.01906 0.13841,-0.08182 0.20075,-0.136463 0.10794,-0.09417 0.2494,-0.278723 0.35522,-0.463157 0.0165,-0.0296 0.0336,-0.05476 0.0368,-0.05833 0.004,-0.0026 0.0315,0.01174 0.0617,0.03249 0.38735,0.264666 1.05886,0.535857 1.88708,0.76297 0.15292,0.04235 0.16165,0.04512 0.16229,0.06219 0.001,0.03753 -0.0292,0.44799 -0.0468,0.623911 -0.0246,0.25325 -0.0458,0.402131 -0.0807,0.567622 -0.0422,0.200379 -0.0853,0.308227 -0.13713,0.348992 -0.0143,0.01139 -0.0276,0.03059 -0.0303,0.04361 -0.0156,0.07383 -0.1817,0.210805 -0.45527,0.375128 -0.21042,0.125955 -0.52161,0.295906 -0.5632,0.308317 -0.0507,0.01559 -0.16269,-0.008 -0.26239,-0.05357 l -0.0696,-0.0316 -0.0665,0.04614 c -0.0627,0.0444 -0.0684,0.05084 -0.12127,0.141355 -0.12444,0.212707 -0.15525,0.374829 -0.0971,0.509096 0.008,0.01942 0.0179,0.02751 0.0374,0.03161 0.0843,0.01778 0.19151,-0.04435 0.32046,-0.18579 l 0.0552,-0.06123 0.20305,-0.04278 0.20288,-0.04196 0.0228,-0.03586 c 0.0635,-0.104387 0.2472,-0.224108 0.57888,-0.37873 0.19166,-0.08924 0.4735,-0.204369 0.47863,-0.196509 0.002,0.0028 0.0127,0.277204 0.0226,0.608047 l 0.0195,0.603142 -0.0585,0.08085 c -0.0322,0.04407 -0.0594,0.08492 -0.0608,0.09141 -0.009,0.04137 0.14588,0.09176 0.39849,0.131457 0.17385,0.02735 0.41585,0.05713 0.4745,0.06021 l 0.027,5.73e-4 0.0115,-0.05436 c 0.0139,-0.06572 0.0122,-0.110125 -0.006,-0.134216 -0.0112,-0.01505 -0.0276,-0.0219 -0.0924,-0.03557 -0.0753,-0.01644 -0.0823,-0.0196 -0.1353,-0.06154 -0.0931,-0.07303 -0.14032,-0.158362 -0.21443,-0.381574 -0.0511,-0.155656 -0.0629,-0.408951 -0.0317,-0.705705 0.0934,-0.901321 0.2062,-1.524878 0.35365,-1.958962 0.0384,-0.113913 0.11061,-0.287643 0.12858,-0.308427 0.006,-0.0073 0.16426,-0.09586 0.35246,-0.19684 l 0.34109,-0.183136 0.0638,0.01857 c 0.45785,0.131227 0.77351,0.189323 0.97036,0.179964 0.0737,-0.0039 0.16141,-0.02614 0.20134,-0.05076 0.0184,-0.01135 0.0544,-0.02494 0.0798,-0.02895 0.47236,-0.07836 1.09195,-0.445126 1.80066,-1.065924 l 0.17229,-0.150092 0.0942,-0.0208 c 0.2826,-0.06244 0.62067,-0.110651 0.79646,-0.112568 0.11303,-0.0016 0.22422,0.01758 0.26491,0.04562 0.0295,0.02059 0.0246,0.02382 0.0969,-0.06176 l 0.0542,-0.06399 -0.009,-0.104331 c -0.005,-0.05778 -0.0201,-0.149968 -0.0333,-0.203593 -0.0386,-0.150484 -0.0942,-0.228299 -0.19384,-0.266241 -0.0243,-0.0091 -0.0611,-0.02386 -0.0829,-0.03272 -0.053,-0.02221 -0.216,-0.05658 -0.41941,-0.08841 l -0.16965,-0.02728 -0.19831,-0.132462 c -0.17375,-0.116269 -0.20091,-0.132161 -0.22111,-0.128795 -0.0124,0.0025 -0.0486,0.0092 -0.0795,0.01547 -0.0989,0.01896 -0.2032,-0.0047 -0.29832,-0.06799 -0.0214,-0.01474 -0.0412,-0.02562 -0.0434,-0.02353 -0.003,0.001 -0.0376,0.06579 -0.0784,0.142755 l -0.0727,0.139737 -0.48825,0.435115 c -0.35269,0.314561 -0.50265,0.443094 -0.53877,0.461746 -0.0657,0.03445 -0.19371,0.06677 -0.28009,0.07059 -0.1822,0.0082 -0.45555,-0.05366 -0.59781,-0.134494 -0.0929,-0.05351 -0.1583,-0.101146 -0.18493,-0.13557 -0.0122,-0.0144 -0.10405,-0.221893 -0.20386,-0.459842 l -0.18299,-0.434264 -0.13242,-0.135518 c -0.13677,-0.138979 -0.17306,-0.167807 -0.37419,-0.294937 -0.22874,-0.144804 -0.40059,-0.225935 -0.5479,-0.258685 l -0.10128,-0.02192 -0.0305,-0.04029 c -0.0833,-0.111222 -0.21712,-0.240253 -0.30038,-0.28746 l -0.0505,-0.02929 -0.0273,-0.07947 c -0.0663,-0.196136 -0.15453,-0.356241 -0.23385,-0.422106 -0.0569,-0.04756 -0.31503,-0.197735 -0.41669,-0.242042 -0.0976,-0.04345 -0.18632,-0.0647 -0.47928,-0.117961 z"
         id="path1073"
         style="fill:#ffa207;fill-opacity:1;stroke:none;stroke-width:0.00082908" />
      <path
         d="m 80.407065,68.409606 c -0.167407,0.0047 -0.220235,0.01127 -0.293255,0.03682 -0.02076,0.0077 -0.04869,0.02317 -0.06229,0.03504 l -0.02434,0.02139 0.01897,0.01603 c 0.06473,0.05461 0.0184,0.176308 -0.14425,0.375772 -0.06351,0.07717 -0.198868,0.180466 -0.349656,0.265951 -0.125261,0.07124 -0.275447,0.134162 -0.425046,0.178684 l -0.07361,0.02198 -0.127631,0.143661 -0.127632,0.143065 -0.128225,0.246363 -0.12882,0.245767 -0.01547,0.287913 c -0.02141,0.389967 -0.06115,1.096991 -0.07183,1.279238 -0.0072,0.119319 -0.01246,0.163845 -0.02613,0.226175 -0.03981,0.178092 -0.09854,0.343719 -0.190556,0.53487 l -0.04633,0.09617 0.03444,0.08192 c 0.132379,0.317601 0.231519,0.731366 0.33066,1.379025 l 0.01067,0.06826 0.08607,0.01663 c 0.07658,0.01484 0.09498,0.01603 0.166218,0.01305 0.216081,-0.0089 0.320563,-0.03027 0.320563,-0.06589 0,-0.02849 -0.03444,-0.07183 -0.07836,-0.09913 -0.02671,-0.01663 -0.105069,-0.04571 -0.154933,-0.05758 -0.02671,-0.0065 -0.05105,-0.01484 -0.05463,-0.019 -0.0043,-0.0042 -0.03265,-0.04809 -0.06351,-0.09676 -0.05406,-0.08549 -0.05757,-0.09261 -0.07777,-0.169185 -0.07361,-0.274264 -0.10151,-0.490943 -0.08727,-0.679718 0.02198,-0.302165 0.06945,-0.536651 0.145445,-0.721272 0.01368,-0.03444 0.03086,-0.07599 0.03745,-0.09201 0.0064,-0.01663 0.01783,-0.04868 0.02492,-0.07124 0.03143,-0.10092 0.117535,-0.21668 0.216082,-0.290885 0.04454,-0.03385 0.13535,-0.240422 0.153751,-0.351432 l 0.0077,-0.04452 0.0184,0.03444 c 0.112194,0.212525 0.09379,0.573457 -0.05578,1.098828 l -0.02728,0.09617 0.04153,0.04927 c 0.326499,0.387646 0.560396,0.802603 0.693368,1.231803 0.01482,0.04689 0.02671,0.08845 0.02671,0.09261 0,0.0042 0.0089,0.01603 0.01905,0.0267 0.04926,0.0469 0.135944,0.06234 0.263576,0.0469 0.04568,-0.0059 0.109222,-0.01663 0.141278,-0.02373 0.05879,-0.01305 0.05936,-0.01305 0.06473,-0.03385 0.01661,-0.06411 -0.01897,-0.102697 -0.123478,-0.136535 l -0.04217,-0.01365 -0.188773,-0.302756 c -0.107453,-0.171559 -0.203028,-0.332436 -0.22143,-0.371022 -0.0368,-0.07599 -0.08549,-0.219052 -0.118137,-0.342529 -0.03917,-0.149005 -0.06408,-0.266546 -0.06408,-0.299789 3.94e-4,-0.04037 0.02019,-0.116945 0.0748,-0.290884 0.07361,-0.233891 0.134756,-0.405453 0.149005,-0.414952 0.02964,-0.0202 0.08489,-0.07777 0.120499,-0.125259 0.06172,-0.08192 0.133574,-0.232114 0.180474,-0.376961 0.0072,-0.02317 0.01547,-0.04333 0.01718,-0.04631 0.0021,-0.0024 0.02377,0.0036 0.04805,0.01365 0.310475,0.128227 0.821007,0.219057 1.434825,0.255861 0.113389,0.0071 0.11992,0.0077 0.122884,0.0196 0.0064,0.02611 0.04568,0.318191 0.05936,0.44404 0.02019,0.181061 0.02728,0.288512 0.02728,0.409612 0,0.146629 -0.01425,0.228551 -0.04454,0.264765 -0.0083,0.01008 -0.01482,0.02551 -0.01482,0.03503 0,0.05402 -0.09617,0.17453 -0.263575,0.330063 -0.12882,0.119322 -0.321752,0.284354 -0.349061,0.299192 -0.03322,0.01841 -0.115166,0.01841 -0.191744,0.0012 l -0.05342,-0.01187 -0.03981,0.04215 c -0.03738,0.04037 -0.04038,0.04571 -0.06408,0.116946 -0.05578,0.167408 -0.05342,0.285544 0.0072,0.371026 0.0083,0.01246 0.01661,0.01663 0.03086,0.01663 0.06172,0 0.127631,-0.05936 0.197086,-0.177497 l 0.02964,-0.05105 0.135944,-0.05996 0.135944,-0.05936 0.01067,-0.02849 c 0.02907,-0.08251 0.140097,-0.193524 0.349649,-0.350842 0.121101,-0.09083 0.301567,-0.213116 0.306322,-0.208367 0.0021,0.0016 0.04983,0.192341 0.105663,0.42267 l 0.1027,0.419706 -0.02907,0.06529 c -0.01604,0.03563 -0.02907,0.06827 -0.02907,0.07302 0,0.03027 0.115759,0.04275 0.298603,0.03325 0.125848,-0.0065 0.299792,-0.02139 0.341343,-0.0279 l 0.01897,-0.0036 v -0.03977 c 0,-0.04809 -0.0077,-0.07895 -0.02377,-0.0932 -0.0101,-0.0089 -0.02256,-0.01127 -0.07003,-0.01127 -0.05521,-3.96e-4 -0.06058,-0.0016 -0.103888,-0.02313 -0.07598,-0.03742 -0.121695,-0.09023 -0.206587,-0.235673 -0.05879,-0.101511 -0.104475,-0.277231 -0.126442,-0.489753 -0.06767,-0.645285 -0.08073,-1.098824 -0.04153,-1.424732 0.0101,-0.08549 0.03501,-0.217866 0.04454,-0.235082 0.0029,-0.0059 0.100923,-0.09142 0.217871,-0.189965 l 0.211929,-0.178684 0.04747,0.0036 c 0.340162,0.02432 0.569898,0.01841 0.706436,-0.01722 0.05105,-0.01365 0.10923,-0.04215 0.133567,-0.0653 0.01124,-0.01068 0.03444,-0.02551 0.05163,-0.03206 0.319375,-0.124663 0.699304,-0.473132 1.104165,-1.012747 l 0.09855,-0.130604 0.06294,-0.02849 c 0.18878,-0.08549 0.418516,-0.16919 0.5414,-0.196496 0.07896,-0.01781 0.159687,-0.02079 0.192338,-0.0072 0.0237,0.01007 0.02076,0.01305 0.05879,-0.05758 l 0.0285,-0.05284 -0.02141,-0.07183 c -0.01189,-0.03977 -0.03623,-0.102103 -0.05342,-0.137722 -0.04926,-0.09973 -0.09973,-0.146037 -0.175125,-0.157909 -0.0184,-0.0028 -0.04633,-0.0077 -0.06294,-0.01068 -0.04038,-0.0077 -0.159687,-0.0077 -0.306909,0 l -0.122884,0.0059 -0.158506,-0.06352 c -0.138908,-0.0558 -0.160282,-0.06292 -0.173936,-0.05758 -0.0083,0.0036 -0.03265,0.01365 -0.05342,0.02258 -0.06652,0.0279 -0.143068,0.0267 -0.219053,-0.0036 -0.01718,-0.0072 -0.03265,-0.01186 -0.03387,-0.01008 -0.0021,0.0012 -0.01661,0.05165 -0.03387,0.111601 l -0.03029,0.108638 -0.277817,0.37696 c -0.200652,0.272479 -0.286732,0.384679 -0.309287,0.403081 -0.04096,0.03385 -0.125855,0.07539 -0.185815,0.09083 -0.126443,0.03266 -0.327094,0.02968 -0.438701,-0.0059 -0.07301,-0.02376 -0.125848,-0.04749 -0.149591,-0.06767 -0.01067,-0.0083 -0.105671,-0.140098 -0.21074,-0.292071 l -0.192346,-0.277231 -0.112788,-0.07539 c -0.116354,-0.07717 -0.146033,-0.09201 -0.305727,-0.151378 -0.181648,-0.06767 -0.314034,-0.09913 -0.422075,-0.100325 l -0.0742,-3.97e-4 -0.02728,-0.02373 c -0.07482,-0.06562 -0.187605,-0.136261 -0.252906,-0.15704 l -0.03974,-0.01305 -0.03086,-0.05165 c -0.0754,-0.127631 -0.160884,-0.22677 -0.226185,-0.261202 -0.0469,-0.02492 -0.249921,-0.09201 -0.327688,-0.108042 -0.0748,-0.01603 -0.140097,-0.01782 -0.353215,-0.01186 z"
         id="path1075"
         style="fill:#ffa207;fill-opacity:1;stroke:none;stroke-width:0.00059364" />
      <path
         d="m 203.62226,58.222639 c -0.1341,0.0038 -0.17641,0.009 -0.2349,0.02949 -0.0167,0.0062 -0.039,0.01856 -0.0499,0.02807 l -0.0195,0.01713 0.0152,0.01284 c 0.0518,0.04374 0.0147,0.141228 -0.11554,0.301004 -0.0509,0.06182 -0.1593,0.144558 -0.28009,0.213034 -0.10034,0.05707 -0.22064,0.107467 -0.34048,0.143131 l -0.059,0.01761 -0.10224,0.115076 -0.10223,0.114599 -0.10271,0.197344 -0.10319,0.196866 -0.0124,0.230626 c -0.0171,0.312374 -0.0489,0.878719 -0.0575,1.024704 -0.006,0.09558 -0.01,0.131244 -0.0209,0.181172 -0.0319,0.142657 -0.0789,0.275328 -0.15264,0.428445 l -0.0371,0.07704 0.0276,0.06562 c 0.10604,0.254407 0.18545,0.585844 0.26487,1.104637 l 0.009,0.05468 0.069,0.01332 c 0.0614,0.01189 0.0761,0.01284 0.13315,0.01045 0.17309,-0.0071 0.25678,-0.02425 0.25678,-0.05278 0,-0.02282 -0.0276,-0.05754 -0.0628,-0.07941 -0.0214,-0.01332 -0.0842,-0.03661 -0.12411,-0.04612 -0.0214,-0.0052 -0.0409,-0.01189 -0.0437,-0.01522 -0.003,-0.0034 -0.0261,-0.03852 -0.0509,-0.07751 -0.0433,-0.06848 -0.0461,-0.07418 -0.0623,-0.135522 -0.059,-0.219693 -0.0813,-0.393259 -0.0699,-0.544473 0.0176,-0.242042 0.0556,-0.429871 0.11651,-0.577758 0.011,-0.02759 0.0247,-0.06087 0.0299,-0.0737 0.005,-0.01332 0.0143,-0.03899 0.0199,-0.05707 0.0251,-0.08084 0.0942,-0.173566 0.17309,-0.233006 0.0357,-0.02712 0.10842,-0.192585 0.12316,-0.281507 l 0.006,-0.03566 0.0147,0.02759 c 0.0899,0.170238 0.0751,0.459354 -0.0447,0.880191 l -0.0219,0.07704 0.0333,0.03947 c 0.26153,0.310515 0.44888,0.642907 0.5554,0.986707 0.0119,0.03756 0.0214,0.07085 0.0214,0.07418 0,0.0034 0.007,0.01284 0.0152,0.02139 0.0395,0.03757 0.1089,0.04994 0.21114,0.03757 0.0366,-0.0047 0.0875,-0.01332 0.11317,-0.01901 0.0471,-0.01045 0.0476,-0.01045 0.0518,-0.02712 0.0133,-0.05135 -0.0152,-0.08226 -0.0989,-0.109368 l -0.0338,-0.01093 -0.15121,-0.242516 c -0.0861,-0.137423 -0.16263,-0.26629 -0.17737,-0.297199 -0.0295,-0.06087 -0.0685,-0.175466 -0.0946,-0.274374 -0.0314,-0.119357 -0.0513,-0.213511 -0.0513,-0.24014 3.1e-4,-0.03234 0.0162,-0.09368 0.0599,-0.233005 0.059,-0.187353 0.10794,-0.324779 0.11936,-0.332388 0.0237,-0.01618 0.068,-0.0623 0.0965,-0.100336 0.0494,-0.06562 0.107,-0.18593 0.14457,-0.301956 0.006,-0.01856 0.0124,-0.03471 0.0138,-0.0371 0.002,-0.0019 0.0191,0.0029 0.0385,0.01093 0.24869,0.102713 0.65765,0.17547 1.14933,0.204951 0.0908,0.0057 0.0961,0.0062 0.0984,0.0157 0.005,0.02091 0.0366,0.25488 0.0476,0.355688 0.0162,0.145035 0.0219,0.231106 0.0219,0.32811 0,0.117454 -0.0114,0.183076 -0.0356,0.212084 -0.006,0.0081 -0.0119,0.02044 -0.0119,0.02806 0,0.04327 -0.0771,0.139804 -0.21113,0.26439 -0.10319,0.09558 -0.25773,0.227775 -0.27961,0.239661 -0.0266,0.01475 -0.0922,0.01475 -0.15359,9.61e-4 l -0.0428,-0.0095 -0.0319,0.03376 c -0.03,0.03234 -0.0324,0.03662 -0.0513,0.09368 -0.0447,0.134098 -0.0428,0.228728 0.006,0.297202 0.006,0.01 0.0133,0.01332 0.0248,0.01332 0.0494,0 0.10224,-0.04755 0.15787,-0.14218 l 0.0237,-0.04089 0.1089,-0.04803 0.10889,-0.04755 0.009,-0.02282 c 0.0233,-0.06609 0.11222,-0.155018 0.28008,-0.281034 0.097,-0.07276 0.24157,-0.170712 0.24537,-0.166908 0.002,0.0013 0.0399,0.15407 0.0846,0.33857 l 0.0823,0.336196 -0.0233,0.0523 c -0.0128,0.02854 -0.0233,0.05469 -0.0233,0.05849 0,0.02425 0.0927,0.03424 0.23919,0.02663 0.10081,-0.0052 0.24014,-0.01713 0.27342,-0.02235 l 0.0152,-0.0029 v -0.03184 c 0,-0.03852 -0.006,-0.06324 -0.0191,-0.07466 -0.008,-0.0071 -0.0181,-0.009 -0.0561,-0.009 -0.0442,-3.18e-4 -0.0485,-0.0013 -0.0832,-0.01853 -0.0609,-0.02998 -0.0975,-0.07228 -0.16547,-0.188781 -0.0471,-0.08131 -0.0837,-0.222069 -0.10129,-0.392305 -0.0542,-0.516891 -0.0647,-0.880187 -0.0332,-1.141249 0.008,-0.06848 0.028,-0.174516 0.0356,-0.188307 0.002,-0.0047 0.0808,-0.07323 0.17453,-0.152167 l 0.16975,-0.14313 0.038,0.0029 c 0.27249,0.01948 0.45651,0.01475 0.56588,-0.01379 0.0409,-0.01093 0.0875,-0.03376 0.10699,-0.05231 0.009,-0.0086 0.0276,-0.02044 0.0413,-0.02568 0.25583,-0.09986 0.56016,-0.378992 0.88447,-0.811238 l 0.079,-0.104617 0.0504,-0.02282 c 0.15122,-0.06848 0.33525,-0.135525 0.43368,-0.157398 0.0633,-0.01427 0.12791,-0.01665 0.15407,-0.0058 0.019,0.0081 0.0167,0.01045 0.0471,-0.04612 l 0.0228,-0.04233 -0.0171,-0.05754 c -0.01,-0.03186 -0.029,-0.08179 -0.0428,-0.110319 -0.0395,-0.07989 -0.0799,-0.116979 -0.14028,-0.126489 -0.0147,-0.0022 -0.0371,-0.0062 -0.0504,-0.0086 -0.0324,-0.0062 -0.12792,-0.0062 -0.24584,0 l -0.0984,0.0047 -0.12696,-0.05088 c -0.11127,-0.0447 -0.1284,-0.0504 -0.13933,-0.04612 -0.006,0.0029 -0.0261,0.01093 -0.0428,0.01809 -0.0533,0.02235 -0.1146,0.02139 -0.17546,-0.0029 -0.0138,-0.0058 -0.0261,-0.0095 -0.0272,-0.0081 -0.002,9.61e-4 -0.0133,0.04137 -0.0272,0.0894 l -0.0243,0.08702 -0.22255,0.301955 c -0.16072,0.218263 -0.22967,0.308139 -0.24775,0.322879 -0.0328,0.02712 -0.10081,0.06039 -0.14883,0.07276 -0.10129,0.02616 -0.26202,0.02378 -0.35142,-0.0047 -0.0585,-0.01903 -0.1008,-0.03804 -0.11982,-0.05421 -0.009,-0.0066 -0.0846,-0.112223 -0.16881,-0.233957 l -0.15408,-0.22207 -0.0903,-0.06039 c -0.0932,-0.06182 -0.11698,-0.0737 -0.24489,-0.121258 -0.14551,-0.05421 -0.25156,-0.07941 -0.3381,-0.08036 l -0.0594,-3.18e-4 -0.0219,-0.01901 c -0.0599,-0.05256 -0.15027,-0.109149 -0.20258,-0.125793 l -0.0318,-0.01045 -0.0248,-0.04137 c -0.0604,-0.102236 -0.12887,-0.181649 -0.18117,-0.20923 -0.0376,-0.01996 -0.2002,-0.0737 -0.26249,-0.08654 -0.0599,-0.01284 -0.11223,-0.01427 -0.28293,-0.0095 z"
         id="path1077"
         style="fill:#ffa207;fill-opacity:1;stroke:none;stroke-width:0.00047552" />
      <rect
         style="opacity:0.606452;fill:#ffffff;stroke:none;stroke-width:0"
         id="rect550"
         width="216.95833"
         height="10.583333"
         x="0"
         y="95.25" />
      <rect
         style="opacity:0.606452;fill:#bd5b1a;fill-opacity:1;stroke:none;stroke-width:0"
         id="rect555"
         width="216.95833"
         height="10.432154"
         x="-9.7699626e-15"
         y="95.25" />
      <rect
         style="opacity:0.606452;fill:#ff0000;fill-opacity:1;stroke:none;stroke-width:0"
         id="rect557"
         width="181.76875"
         height="12.170833"
         x="2.3812499"
         y="122.2375" />
    </g>
  </g>
</svg>
