<svg width="637" height="638" viewBox="0 0 637 638" fill="none" xmlns="http://www.w3.org/2000/svg">
<path d="M252.659 492.71L74.8545 492.71L74.8545 378.706L252.659 378.706C254.06 378.726 255.449 378.278 256.738 377.392C258.102 376.434 259.342 375.072 260.396 373.377C261.388 371.785 262.173 369.89 262.705 367.803C263.805 363.386 263.805 358.455 262.705 354.038C262.182 351.928 261.396 350.013 260.396 348.412C259.392 346.812 258.208 345.536 256.908 344.65C255.559 343.771 254.114 343.339 252.659 343.382L74.8545 343.382L74.8545 229.102L252.659 229.102C254.124 229.147 255.578 228.699 256.93 227.789C281.189 236.257 303.244 256.553 320.099 285.921C320.043 286.059 319.957 286.242 319.904 286.374C321.424 289.91 322.831 293.543 324.124 297.271C324.176 297.402 324.222 297.538 324.263 297.678C324.32 297.862 324.405 298.085 324.491 298.361C326.207 303.322 327.702 308.474 328.964 313.777C336.612 345.669 336.25 381.108 327.956 412.577C319.661 444.046 304.086 469.07 284.534 482.341C274.455 489.241 263.61 492.769 252.659 492.71Z" fill="#038BFF"/>
<path d="M81.7899 378.923L259.595 378.923L259.595 490.287L81.7899 490.287C80.3888 490.268 79.0002 490.705 77.7117 491.57C76.3473 492.506 75.1067 493.837 74.0534 495.492C73.0608 497.047 72.2758 498.898 71.7438 500.937C70.6438 505.252 70.6438 510.069 71.7438 514.383C72.2673 516.444 73.053 518.315 74.0534 519.879C75.0573 521.442 76.2409 522.689 77.5408 523.554C78.8899 524.413 80.3351 524.834 81.7899 524.792L259.595 524.792L259.595 636.426L81.7899 636.426C80.3255 636.382 78.8711 636.819 77.5195 637.709C53.2597 629.437 31.205 609.611 14.3497 580.923C14.4067 580.789 14.4921 580.609 14.5455 580.48C13.0248 577.026 11.6178 573.477 10.3249 569.836C10.2737 569.708 10.2274 569.575 10.1861 569.438C10.1292 569.259 10.0437 569.04 9.95834 568.771C8.24235 563.925 6.74737 558.893 5.48512 553.712C-2.1628 522.559 -1.80125 487.94 6.49327 457.2C14.7878 426.459 30.363 402.015 49.915 389.052C59.9945 382.311 70.8388 378.865 81.7899 378.923Z" fill="#038BFF"/>
<path fill-rule="evenodd" clip-rule="evenodd" d="M352.429 229.409V361.125C352.443 363.483 352.166 365.823 351.614 368.007C351.076 370.088 350.293 371.981 349.308 373.582C348.315 375.194 347.126 376.461 345.817 377.304C343.077 379.077 340.017 379.077 337.277 377.304C335.981 376.447 334.805 375.182 333.817 373.582C332.832 371.981 332.047 370.088 331.508 368.007C326.253 407.105 313.66 442.649 295.438 469.814C300.674 475.637 306.322 480.436 312.262 484.106C313.586 484.921 314.935 485.689 316.288 486.372C326.212 491.559 336.661 493.635 347.07 492.491C347.239 492.48 347.408 492.452 347.575 492.405C356.473 491.486 365.211 488.156 373.422 482.558C393.044 469.267 408.654 444.116 416.905 412.496C421.18 396.245 423.36 378.764 423.31 361.114V229.409H352.429Z" fill="#038BFF"/>
<path fill-rule="evenodd" clip-rule="evenodd" d="M540.916 375.181V492.216C548.201 490.88 555.333 488.058 562.107 483.822C581.765 471.611 597.404 448.503 605.671 419.452C609.954 404.522 612.138 388.461 612.088 372.244V108.969H541.076V372.255C541.082 373.238 541.028 374.217 540.916 375.181Z" fill="#038BFF"/>
<path d="M576.503 0L628.895 103.234H524.11L576.503 0Z" fill="#038BFF"/>
<ellipse cx="352.307" cy="562.052" rx="35.5866" ry="57.3523" fill="#038BFF"/>
<path fill-rule="evenodd" clip-rule="evenodd" d="M431.292 636.61L431.325 636.54C434.086 636.682 436.856 636.609 439.622 636.317C439.792 636.307 439.961 636.279 440.129 636.235C449.043 635.352 457.797 632.156 466.024 626.782C485.682 614.025 501.321 589.882 509.587 559.53C513.871 543.932 516.054 527.151 516.005 510.209V235.145H444.992V510.22C445.004 512.249 444.783 514.264 444.338 516.17H387.696C394.458 528.347 398.57 544.426 398.57 562.052C398.57 598.131 381.345 627.725 359.425 630.64V636.61H431.292Z" fill="#038BFF"/>
<path fill-rule="evenodd" clip-rule="evenodd" d="M444.833 384.26H515.845V160.586H444.833V384.26Z" fill="#038BFF"/>
</svg>
