<svg width="1430" height="464" viewBox="0 0 1430 464" fill="none" xmlns="http://www.w3.org/2000/svg">
<path d="M1102.57 104.132C1102.57 92.9072 1113.35 83.8136 1126.63 83.8213L1195.32 83.8609C1208.6 83.8685 1219.36 92.9746 1219.35 104.2L1219.31 162.272C1219.3 173.497 1208.53 182.59 1195.24 182.583L1126.55 182.543C1113.27 182.536 1102.51 173.429 1102.52 162.204L1102.57 104.132Z" fill="#F25022"/>
<path d="M1254.45 20.3063C1254.46 9.08099 1265.23 -0.0104174 1278.51 8.95911e-06L1405.59 0.0998207C1418.87 0.110247 1429.63 9.2186 1429.63 20.4438L1429.57 127.877C1429.56 139.102 1418.79 148.194 1405.51 148.183L1278.42 148.083C1265.14 148.073 1254.38 138.964 1254.39 127.739L1254.45 20.3063Z" fill="#7FBA00"/>
<path d="M1254.3 202.942C1254.32 191.717 1265.09 182.623 1278.37 182.631L1376.26 182.687C1389.53 182.695 1400.29 191.801 1400.28 203.026L1400.22 285.779C1400.21 297.004 1389.44 306.098 1376.16 306.09L1278.27 306.033C1264.99 306.026 1254.23 296.92 1254.24 285.694L1254.3 202.942Z" fill="#FFB900"/>
<path fill-rule="evenodd" clip-rule="evenodd" d="M713.136 441.191L713.148 425.501L755.533 391.066L755.492 441.216C755.488 446.6 753.586 451.049 749.782 454.556C745.977 457.834 740.816 459.469 734.302 459.465C728.054 459.461 722.897 457.818 718.826 454.54C715.03 451.025 713.132 446.576 713.136 441.191ZM755.65 240.355L755.545 375.322L713.16 409.755L713.293 240.33L631.836 240.284C618.803 240.276 612.293 235.239 612.301 225.173C612.305 220.257 613.937 216.512 617.196 213.939C620.725 211.365 625.616 210.081 631.86 210.084L837.128 210.202C843.372 210.206 848.125 211.496 851.38 214.073C854.906 216.65 856.671 220.397 856.667 225.313C856.658 235.379 850.136 240.409 837.104 240.401L755.65 240.355ZM891.305 441.292L891.431 280.654L933.407 246.551L933.258 441.317C933.25 446.935 931.348 451.384 927.543 454.657C924.014 457.935 918.852 459.57 912.063 459.566C905.82 459.562 900.796 457.919 897 454.641C893.199 451.364 891.301 446.911 891.305 441.292ZM891.443 264.911L933.419 230.808L933.423 226.762C933.428 221.143 931.529 216.694 927.733 213.414C923.933 210.135 918.776 208.493 912.257 208.489C906.014 208.486 900.99 210.238 897.185 213.748C893.381 217.023 891.479 221.353 891.475 226.737L891.443 264.911ZM254.73 208.112C260.704 208.116 265.589 209.875 269.388 213.388C273.187 216.668 275.084 221 275.08 226.384L274.912 441.995C274.908 447.38 273.14 451.59 269.607 454.633C266.347 457.673 261.73 459.194 255.756 459.19C250.055 459.186 245.576 457.661 242.32 454.617C239.064 451.573 237.438 447.355 237.442 441.975L237.569 278.685L157.641 409.622C152.476 417.812 145.821 421.905 137.675 421.901C129.53 421.897 122.881 417.796 117.728 409.597L37.5956 279.975L37.4695 441.857C37.4653 447.242 35.8329 451.456 32.5723 454.496C29.3117 457.539 24.6947 459.057 18.7213 459.053C13.0194 459.049 8.40485 457.527 4.87748 454.48C1.62182 451.202 -0.0040072 446.988 7.4166e-06 441.837L0.168074 226.227C0.172272 220.842 2.07627 216.512 5.88006 213.237C9.68406 209.728 14.5727 207.975 20.5461 207.978C28.9632 207.983 35.7479 212.201 40.9002 220.632L138.114 381.166L234.764 220.743C239.929 212.318 246.585 208.108 254.73 208.112ZM558.079 208.286C564.052 208.289 568.802 210.048 572.327 213.562C576.128 216.841 578.026 221.173 578.022 226.558L577.852 441.115C577.848 446.5 575.946 450.944 572.142 454.456C568.337 457.729 563.451 459.368 557.473 459.364C550.414 459.36 544.986 457.015 541.19 452.332L381.679 270.691L381.546 441.002C381.542 446.386 379.638 450.835 375.834 454.343C372.301 457.616 367.549 459.255 361.575 459.251C355.602 459.247 350.851 457.604 347.324 454.326C343.797 451.049 342.036 446.596 342.04 440.978L342.207 226.423C342.211 221.038 344.115 216.709 347.919 213.433C351.723 209.924 356.612 208.171 362.585 208.174C369.645 208.178 375.073 210.523 378.871 215.207L538.383 397.197L538.516 226.535C538.52 221.151 540.285 216.821 543.819 213.545C547.353 210.036 552.106 208.283 558.079 208.286ZM1106.8 459.953C1086.83 458.177 1068.98 453.394 1053.24 445.599C1032.88 435.29 1017.28 420.649 1006.44 401.679C995.589 382.477 990.177 359.882 990.198 333.897C990.218 308.145 995.666 285.792 1006.54 266.835C1017.41 247.645 1033.04 233.022 1053.41 222.968C1073.78 212.678 1097.68 207.542 1125.1 207.558C1143.02 207.568 1159.99 210.036 1176.01 214.961C1192.02 219.652 1206 226.567 1217.94 235.703C1223.1 239.218 1225.67 243.902 1225.67 249.754C1225.67 253.968 1224.31 257.596 1221.59 260.637C1218.87 263.445 1215.61 264.848 1211.81 264.846C1207.19 264.843 1202.71 263.319 1198.37 260.273C1185.35 251.838 1173.4 245.978 1162.55 242.695C1151.96 239.177 1139.88 237.414 1126.3 237.407C1096.44 237.389 1073.48 245.687 1057.45 262.299C1041.42 278.912 1033.39 302.785 1033.37 333.921C1033.34 365.291 1041.33 389.292 1057.34 405.924C1073.35 422.555 1096.28 430.878 1126.15 430.894C1132.4 430.898 1138.36 430.499 1144.04 429.695L1106.8 459.953ZM1125.19 460.74C1143.01 460.728 1159.89 458.395 1175.82 453.749C1191.84 448.841 1205.83 441.825 1217.79 432.703C1222.95 429.195 1225.53 424.512 1225.54 418.659C1225.54 414.445 1224.18 410.934 1221.47 408.124C1218.76 405.076 1215.5 403.555 1211.7 403.551C1208.17 403.551 1203.69 405.068 1198.26 408.112C1189.83 413.186 1181.93 417.364 1174.55 420.641L1125.19 460.74Z" fill="#333333"/>
<path fill-rule="evenodd" clip-rule="evenodd" d="M712.736 442.16L712.748 425.522L757.043 389.02L757.003 442.185C756.999 447.892 755.008 452.607 751.034 456.325C747.06 459.8 741.664 461.532 734.855 461.528C728.329 461.524 722.937 459.784 718.685 456.308C714.715 452.583 712.732 447.868 712.736 442.16Z" fill="#7FBA00"/>
<path fill-rule="evenodd" clip-rule="evenodd" d="M889.94 270.771L934.243 231.557L934.248 226.905C934.252 220.445 932.248 215.329 928.242 211.558C924.232 207.788 918.788 205.9 911.914 205.896C905.323 205.892 900.021 207.908 896.006 211.943C891.992 215.71 889.981 220.688 889.977 226.879L889.94 270.771Z" fill="#F25022"/>
<path fill-rule="evenodd" clip-rule="evenodd" d="M1124.42 461.754C1142.5 461.738 1159.64 459.247 1175.81 454.29C1192.08 449.055 1206.28 441.567 1218.41 431.835C1223.65 428.089 1226.27 423.096 1226.28 416.851C1226.28 412.355 1224.91 408.609 1222.15 405.609C1219.4 402.36 1216.09 400.735 1212.23 400.733C1208.65 400.731 1204.1 402.352 1198.59 405.597C1190.03 411.014 1182.01 415.471 1174.53 418.966L1124.42 461.754Z" fill="#FFB900"/>
<path fill-rule="evenodd" clip-rule="evenodd" d="M1123.27 462.161L1174.24 418.635L1174.3 418.607C1181.77 415.124 1189.77 410.675 1198.31 405.266L1198.32 405.258C1203.86 402.002 1208.5 400.322 1212.23 400.325C1216.27 400.327 1219.71 402.037 1222.53 405.363C1225.36 408.443 1226.76 412.286 1226.75 416.851C1226.75 423.205 1224.08 428.315 1218.72 432.142C1206.54 441.91 1192.3 449.422 1175.98 454.674H1175.97C1159.74 459.651 1142.56 462.145 1124.42 462.161H1123.27ZM1218.41 431.835C1223.65 428.089 1226.27 423.096 1226.28 416.851C1226.28 412.354 1224.91 408.609 1222.15 405.609C1219.4 402.361 1216.1 400.736 1212.23 400.733C1208.65 400.731 1204.1 402.352 1198.59 405.597C1190.04 411.014 1182.02 415.471 1174.53 418.966L1124.42 461.754C1124.65 461.754 1124.88 461.754 1125.1 461.75C1142.93 461.673 1159.84 459.186 1175.81 454.29C1192.08 449.055 1206.28 441.567 1218.41 431.835Z" fill="#FFB900"/>
<path fill-rule="evenodd" clip-rule="evenodd" d="M1122.27 462.517L1173.99 418.349L1174.1 418.296C1181.55 414.821 1189.54 410.381 1198.06 404.98L1198.09 404.964C1203.64 401.698 1208.38 399.967 1212.23 399.97C1216.43 399.972 1219.98 401.756 1222.86 405.145C1225.75 408.302 1227.16 412.221 1227.16 416.851C1227.16 423.298 1224.44 428.509 1218.99 432.408C1206.77 442.205 1192.48 449.737 1176.12 455.005L1176.11 455.009C1159.83 459.998 1142.6 462.501 1124.42 462.517H1122.27ZM1218.41 431.835C1223.65 428.089 1226.27 423.096 1226.28 416.851C1226.28 412.355 1224.9 408.609 1222.15 405.61C1219.4 402.361 1216.09 400.735 1212.23 400.733C1208.65 400.731 1204.1 402.352 1198.59 405.597C1190.03 411.015 1182.01 415.471 1174.53 418.967L1124.42 461.754C1124.84 461.754 1125.27 461.75 1125.69 461.75C1143.3 461.621 1160.01 459.134 1175.81 454.29C1192.08 449.055 1206.28 441.567 1218.41 431.835Z" fill="#FFB900"/>
<path fill-rule="evenodd" clip-rule="evenodd" d="M1119.39 463.542L1173.28 417.517L1173.54 417.396C1180.93 413.949 1188.87 409.537 1197.36 404.156L1197.4 404.132L1197.42 404.12C1203.03 400.824 1208.01 398.946 1212.23 398.948C1216.88 398.951 1220.75 400.946 1223.8 404.528C1226.87 407.89 1228.35 412.04 1228.35 416.851C1228.34 423.572 1225.5 429.074 1219.78 433.175C1207.44 443.06 1193.02 450.653 1176.54 455.961L1176.5 455.973C1160.1 461.003 1142.73 463.522 1124.42 463.538L1119.39 463.542ZM1222.85 405.137C1222.85 405.141 1222.85 405.145 1222.85 405.149C1222.86 405.149 1222.86 405.153 1222.87 405.157C1225.75 408.31 1227.16 412.225 1227.16 416.851C1227.16 423.293 1224.45 428.497 1219.01 432.396C1219.01 432.4 1219 432.404 1218.99 432.408C1218.99 432.412 1218.98 432.416 1218.98 432.424C1206.76 442.213 1192.47 449.741 1176.12 455.005L1176.11 455.009C1160.21 459.881 1143.4 462.383 1125.69 462.513C1125.27 462.513 1124.85 462.517 1124.42 462.517H1122.27L1173.99 418.349L1174.11 418.296C1181.55 414.821 1189.54 410.381 1198.06 404.98L1198.09 404.963C1203.64 401.698 1208.38 399.967 1212.23 399.97C1216.43 399.972 1219.97 401.752 1222.85 405.137ZM1174.64 418.914C1174.6 418.93 1174.56 418.95 1174.53 418.966L1124.42 461.754C1124.56 461.754 1124.71 461.754 1124.85 461.754C1125.13 461.75 1125.41 461.75 1125.69 461.75C1125.83 461.746 1125.97 461.746 1126.11 461.746C1143.57 461.58 1160.13 459.094 1175.8 454.294C1175.8 454.294 1175.81 454.29 1175.81 454.29C1192.07 449.055 1206.26 441.575 1218.39 431.847C1218.4 431.843 1218.4 431.839 1218.41 431.835C1218.42 431.831 1218.42 431.827 1218.43 431.819C1223.65 428.077 1226.27 423.088 1226.28 416.851C1226.28 412.362 1224.91 408.617 1222.16 405.621C1222.16 405.617 1222.16 405.613 1222.15 405.609C1222.15 405.605 1222.14 405.601 1222.14 405.597C1219.39 402.357 1216.09 400.735 1212.23 400.733C1208.66 400.731 1204.12 402.347 1198.61 405.581C1198.6 405.585 1198.6 405.589 1198.59 405.597C1190.08 410.986 1182.1 415.426 1174.64 418.914ZM1127.33 460.708L1175.24 419.794C1182.74 416.286 1190.75 411.83 1199.27 406.429C1204.73 403.224 1209.02 401.753 1212.23 401.755C1215.63 401.757 1218.61 403.163 1221.19 406.211L1221.21 406.227L1221.22 406.243C1223.78 409.032 1225.1 412.544 1225.09 416.851C1225.09 422.813 1222.6 427.512 1217.65 431.048L1217.63 431.068L1217.6 431.088C1205.59 440.723 1191.53 448.138 1175.41 453.329C1160.23 457.98 1144.21 460.442 1127.33 460.708Z" fill="#FFB900"/>
</svg>
